<svg width="168" height="63" viewBox="0 0 168 63" fill="currentColor" xmlns="http://www.w3.org/2000/svg">
<path d="M24.2386 26H21.0682C20.8807 25.0881 20.5526 24.2869 20.0838 23.5966C19.6236 22.9062 19.0611 22.3267 18.3963 21.858C17.7401 21.3807 17.0114 21.0227 16.2102 20.7841C15.4091 20.5455 14.5739 20.4261 13.7045 20.4261C12.1193 20.4261 10.6832 20.8267 9.39631 21.6278C8.1179 22.429 7.09943 23.6094 6.34091 25.169C5.59091 26.7287 5.21591 28.642 5.21591 30.9091C5.21591 33.1761 5.59091 35.0895 6.34091 36.6491C7.09943 38.2088 8.1179 39.3892 9.39631 40.1903C10.6832 40.9915 12.1193 41.392 13.7045 41.392C14.5739 41.392 15.4091 41.2727 16.2102 41.0341C17.0114 40.7955 17.7401 40.4418 18.3963 39.973C19.0611 39.4957 19.6236 38.9119 20.0838 38.2216C20.5526 37.5227 20.8807 36.7216 21.0682 35.8182H24.2386C24 37.1562 23.5653 38.3537 22.9347 39.4105C22.304 40.4673 21.5199 41.3665 20.5824 42.108C19.6449 42.8409 18.5923 43.3991 17.4247 43.7827C16.2656 44.1662 15.0256 44.358 13.7045 44.358C11.4716 44.358 9.4858 43.8125 7.74716 42.7216C6.00852 41.6307 4.64063 40.0795 3.64347 38.0682C2.64631 36.0568 2.14773 33.6705 2.14773 30.9091C2.14773 28.1477 2.64631 25.7614 3.64347 23.75C4.64063 21.7386 6.00852 20.1875 7.74716 19.0966C9.4858 18.0057 11.4716 17.4602 13.7045 17.4602C15.0256 17.4602 16.2656 17.652 17.4247 18.0355C18.5923 18.419 19.6449 18.9815 20.5824 19.723C21.5199 20.456 22.304 21.3509 22.9347 22.4077C23.5653 23.456 24 24.6534 24.2386 26ZM51.4528 30.9091C51.4528 33.6705 50.9542 36.0568 49.957 38.0682C48.9599 40.0795 47.592 41.6307 45.8533 42.7216C44.1147 43.8125 42.1289 44.358 39.896 44.358C37.663 44.358 35.6772 43.8125 33.9386 42.7216C32.1999 41.6307 30.832 40.0795 29.8349 38.0682C28.8377 36.0568 28.3391 33.6705 28.3391 30.9091C28.3391 28.1477 28.8377 25.7614 29.8349 23.75C30.832 21.7386 32.1999 20.1875 33.9386 19.0966C35.6772 18.0057 37.663 17.4602 39.896 17.4602C42.1289 17.4602 44.1147 18.0057 45.8533 19.0966C47.592 20.1875 48.9599 21.7386 49.957 23.75C50.9542 25.7614 51.4528 28.1477 51.4528 30.9091ZM48.3846 30.9091C48.3846 28.642 48.0053 26.7287 47.2468 25.169C46.4968 23.6094 45.4783 22.429 44.1914 21.6278C42.913 20.8267 41.4812 20.4261 39.896 20.4261C38.3107 20.4261 36.8746 20.8267 35.5877 21.6278C34.3093 22.429 33.2908 23.6094 32.5323 25.169C31.7823 26.7287 31.4073 28.642 31.4073 30.9091C31.4073 33.1761 31.7823 35.0895 32.5323 36.6491C33.2908 38.2088 34.3093 39.3892 35.5877 40.1903C36.8746 40.9915 38.3107 41.392 39.896 41.392C41.4812 41.392 42.913 40.9915 44.1914 40.1903C45.4783 39.3892 46.4968 38.2088 47.2468 36.6491C48.0053 35.0895 48.3846 33.1761 48.3846 30.9091ZM56.7837 44V17.8182H65.6303C67.6758 17.8182 69.3548 18.1676 70.6673 18.8665C71.9798 19.5568 72.9514 20.5071 73.582 21.7173C74.2127 22.9276 74.5281 24.304 74.5281 25.8466C74.5281 27.3892 74.2127 28.7571 73.582 29.9503C72.9514 31.1435 71.984 32.081 70.68 32.7628C69.3761 33.4361 67.7099 33.7727 65.6815 33.7727H58.5224V30.9091H65.5792C66.9769 30.9091 68.1019 30.7045 68.9542 30.2955C69.815 29.8864 70.4371 29.3068 70.8207 28.5568C71.2127 27.7983 71.4087 26.8949 71.4087 25.8466C71.4087 24.7983 71.2127 23.8821 70.8207 23.098C70.4286 22.3139 69.8022 21.7088 68.9414 21.2827C68.0806 20.848 66.9428 20.6307 65.5281 20.6307H59.9542V44H56.7837ZM69.1076 32.2386L75.5508 44H71.869L65.5281 32.2386H69.1076ZM80.8849 44H77.5611L87.1747 17.8182H90.4474L100.061 44H96.7372L88.9134 21.9602H88.7088L80.8849 44ZM82.1122 33.7727H95.5099V36.5852H82.1122V33.7727ZM123.977 26H120.806C120.619 25.0881 120.291 24.2869 119.822 23.5966C119.362 22.9062 118.799 22.3267 118.135 21.858C117.478 21.3807 116.75 21.0227 115.949 20.7841C115.147 20.5455 114.312 20.4261 113.443 20.4261C111.858 20.4261 110.422 20.8267 109.135 21.6278C107.856 22.429 106.838 23.6094 106.079 25.169C105.329 26.7287 104.954 28.642 104.954 30.9091C104.954 33.1761 105.329 35.0895 106.079 36.6491C106.838 38.2088 107.856 39.3892 109.135 40.1903C110.422 40.9915 111.858 41.392 113.443 41.392C114.312 41.392 115.147 41.2727 115.949 41.0341C116.75 40.7955 117.478 40.4418 118.135 39.973C118.799 39.4957 119.362 38.9119 119.822 38.2216C120.291 37.5227 120.619 36.7216 120.806 35.8182H123.977C123.738 37.1562 123.304 38.3537 122.673 39.4105C122.042 40.4673 121.258 41.3665 120.321 42.108C119.383 42.8409 118.331 43.3991 117.163 43.7827C116.004 44.1662 114.764 44.358 113.443 44.358C111.21 44.358 109.224 43.8125 107.485 42.7216C105.747 41.6307 104.379 40.0795 103.382 38.0682C102.385 36.0568 101.886 33.6705 101.886 30.9091C101.886 28.1477 102.385 25.7614 103.382 23.75C104.379 21.7386 105.747 20.1875 107.485 19.0966C109.224 18.0057 111.21 17.4602 113.443 17.4602C114.764 17.4602 116.004 17.652 117.163 18.0355C118.331 18.419 119.383 18.9815 120.321 19.723C121.258 20.456 122.042 21.3509 122.673 22.4077C123.304 23.456 123.738 24.6534 123.977 26ZM129.1 44V17.8182H132.271V41.1875H144.441V44H129.1ZM149.35 44V17.8182H165.151V20.6307H152.521V29.4773H164.333V32.2898H152.521V41.1875H165.356V44H149.35Z" fill="currentColor"/>
</svg>
