<svg width="390" height="49" viewBox="0 0 390 49" fill="none" xmlns="http://www.w3.org/2000/svg">
<path d="M29.61 19.555V33.7156C29.072 34.3982 28.2229 35.1391 27.0627 35.9383C25.9193 36.7375 24.4228 37.4285 22.5732 38.0112C20.7237 38.5773 18.4537 38.8603 15.7634 38.8603C13.4262 38.8603 11.2908 38.4774 9.35718 37.7115C7.42353 36.929 5.75891 35.7885 4.36332 34.29C2.96773 32.7915 1.89161 30.9601 1.13497 28.7956C0.378322 26.6312 0 24.1587 0 21.3782V18.9806C0 16.2001 0.353101 13.7277 1.0593 11.5632C1.78232 9.39874 2.80799 7.56728 4.13633 6.06881C5.48147 4.57034 7.08724 3.42983 8.95363 2.6473C10.8368 1.86476 12.9386 1.4735 15.259 1.4735C18.3697 1.4735 20.9254 1.98131 22.9263 2.99694C24.9441 4.01257 26.491 5.41114 27.5671 7.19266C28.6432 8.95753 29.3158 10.9888 29.5848 13.2864H22.8255C22.6405 12.0211 22.2706 10.9139 21.7157 9.96483C21.1608 8.99915 20.3706 8.24992 19.3449 7.71713C18.336 7.16769 17.0245 6.89297 15.4103 6.89297C14.0484 6.89297 12.8461 7.15936 11.8037 7.69215C10.7612 8.22494 9.88683 8.99915 9.18062 10.0148C8.47442 11.0304 7.93636 12.2875 7.56645 13.7859C7.21335 15.2844 7.0368 16.9993 7.0368 18.9307V21.3782C7.0368 23.3262 7.23857 25.0578 7.64211 26.5729C8.04566 28.0714 8.62575 29.3367 9.3824 30.369C10.1559 31.3846 11.1059 32.1589 12.2324 32.6916C13.3758 33.2078 14.6705 33.4659 16.1165 33.4659C17.4281 33.4659 18.5126 33.3576 19.3701 33.1412C20.2445 32.9081 20.9422 32.6334 21.4635 32.317C21.9847 32.0007 22.3883 31.6927 22.6741 31.393V24.5749H15.3851V19.555H29.61Z" fill="black"/>
<path d="M34.4778 25.1244V24.5999C34.4778 22.6186 34.7636 20.7954 35.3353 19.1305C35.907 17.4489 36.7393 15.992 37.8322 14.7599C38.9252 13.5279 40.2619 12.5705 41.8425 11.8879C43.423 11.1886 45.2221 10.8389 47.2399 10.8389C49.2912 10.8389 51.1072 11.1886 52.6877 11.8879C54.2851 12.5705 55.6302 13.5279 56.7231 14.7599C57.8161 15.992 58.6484 17.4489 59.2201 19.1305C59.7918 20.7954 60.0776 22.6186 60.0776 24.5999V25.1244C60.0776 27.089 59.7918 28.9122 59.2201 30.5938C58.6484 32.2587 57.8161 33.7156 56.7231 34.9643C55.6302 36.1964 54.2935 37.1538 52.7129 37.8364C51.1324 38.519 49.3248 38.8603 47.2903 38.8603C45.2726 38.8603 43.465 38.519 41.8677 37.8364C40.2703 37.1538 38.9252 36.1964 37.8322 34.9643C36.7393 33.7156 35.907 32.2587 35.3353 30.5938C34.7636 28.9122 34.4778 27.089 34.4778 25.1244ZM41.1363 24.5999V25.1244C41.1363 26.3065 41.254 27.4137 41.4894 28.446C41.7248 29.4783 42.0863 30.3857 42.5739 31.1682C43.0615 31.9507 43.692 32.5668 44.4655 33.0163C45.2558 33.4492 46.1974 33.6656 47.2903 33.6656C48.3664 33.6656 49.2912 33.4492 50.0647 33.0163C50.8381 32.5668 51.4687 31.9507 51.9563 31.1682C52.4607 30.3857 52.8306 29.4783 53.066 28.446C53.3014 27.4137 53.4191 26.3065 53.4191 25.1244V24.5999C53.4191 23.4344 53.3014 22.3439 53.066 21.3282C52.8306 20.296 52.4607 19.3885 51.9563 18.606C51.4687 17.8068 50.8297 17.1825 50.0394 16.7329C49.266 16.2667 48.3328 16.0336 47.2399 16.0336C46.1637 16.0336 45.239 16.2667 44.4655 16.7329C43.692 17.1825 43.0615 17.8068 42.5739 18.606C42.0863 19.3885 41.7248 20.296 41.4894 21.3282C41.254 22.3439 41.1363 23.4344 41.1363 24.5999Z" fill="black"/>
<path d="M82.2725 11.3384H88.3257V37.5367C88.3257 39.9842 87.7876 42.0571 86.7115 43.7554C85.6522 45.4703 84.1641 46.7689 82.2473 47.6514C80.3305 48.5505 78.1026 49 75.5636 49C74.4707 49 73.2853 48.8502 72.0074 48.5505C70.7463 48.2508 69.5273 47.7762 68.3503 47.1269C67.1901 46.4942 66.2232 45.6701 65.4498 44.6544L68.4511 40.7584C69.3591 41.8073 70.3848 42.5982 71.5282 43.131C72.6715 43.6804 73.9074 43.9551 75.2357 43.9551C76.5809 43.9551 77.7242 43.7054 78.6658 43.2059C79.6243 42.7231 80.3557 42.0071 80.8601 41.0581C81.3814 40.1257 81.642 38.9769 81.642 37.6116V17.5071L82.2725 11.3384ZM63.8356 25.1743V24.6498C63.8356 22.5853 64.0878 20.7122 64.5923 19.0306C65.0967 17.3323 65.8197 15.8755 66.7613 14.66C67.7197 13.4446 68.8715 12.5039 70.2166 11.8379C71.5786 11.1719 73.1087 10.8389 74.807 10.8389C76.6061 10.8389 78.1194 11.1636 79.3468 11.8129C80.5911 12.4623 81.6168 13.3863 82.4239 14.5851C83.2478 15.7839 83.8867 17.2074 84.3407 18.8558C84.8115 20.4874 85.173 22.2856 85.4252 24.2503V25.6738C85.1898 27.5885 84.8115 29.3451 84.2902 30.9434C83.7858 32.5418 83.1132 33.9404 82.2725 35.1391C81.4318 36.3213 80.3893 37.237 79.1451 37.8863C77.9008 38.5357 76.4379 38.8603 74.7565 38.8603C73.0751 38.8603 71.5618 38.519 70.2166 37.8364C68.8715 37.1538 67.7197 36.1964 66.7613 34.9643C65.8197 33.7322 65.0967 32.2837 64.5923 30.6188C64.0878 28.9538 63.8356 27.139 63.8356 25.1743ZM70.4941 24.6498V25.1743C70.4941 26.3398 70.6118 27.4303 70.8472 28.446C71.0826 29.4616 71.4441 30.3607 71.9317 31.1432C72.4193 31.9091 73.033 32.5085 73.7729 32.9414C74.5127 33.3743 75.3955 33.5907 76.4211 33.5907C77.7999 33.5907 78.9265 33.3077 79.8008 32.7416C80.692 32.1589 81.3645 31.368 81.8185 30.369C82.2893 29.3534 82.592 28.2129 82.7265 26.9475V23.0265C82.6424 22.0275 82.4575 21.1035 82.1716 20.2543C81.9026 19.4052 81.5243 18.6726 81.0367 18.0566C80.5491 17.4405 79.9269 16.9577 79.1703 16.6081C78.4136 16.2584 77.5141 16.0836 76.4716 16.0836C75.4627 16.0836 74.58 16.3084 73.8233 16.7579C73.0667 17.1908 72.4445 17.7985 71.9569 18.581C71.4693 19.3636 71.0994 20.271 70.8472 21.3033C70.6118 22.3355 70.4941 23.4511 70.4941 24.6498Z" fill="black"/>
<path d="M101.39 0V38.3609H94.7067V0H101.39Z" fill="black"/>
<path d="M120.004 38.8603C117.936 38.8603 116.078 38.5274 114.43 37.8614C112.782 37.1954 111.378 36.2713 110.218 35.0892C109.075 33.8904 108.192 32.5002 107.57 30.9185C106.964 29.3201 106.662 27.6052 106.662 25.7737V24.7747C106.662 22.6935 106.964 20.8038 107.57 19.1055C108.175 17.3906 109.033 15.9171 110.142 14.685C111.252 13.4529 112.58 12.5039 114.127 11.8379C115.674 11.1719 117.381 10.8389 119.247 10.8389C121.181 10.8389 122.888 11.1636 124.367 11.8129C125.847 12.4456 127.083 13.3447 128.075 14.5102C129.067 15.6757 129.815 17.0742 130.319 18.7059C130.824 20.3209 131.076 22.1108 131.076 24.0754V26.8476H109.688V22.3022H124.519V21.8028C124.485 20.7538 124.283 19.7965 123.913 18.9307C123.543 18.0483 122.972 17.349 122.198 16.8328C121.425 16.3 120.424 16.0336 119.197 16.0336C118.205 16.0336 117.339 16.2501 116.599 16.683C115.876 17.0992 115.271 17.6986 114.783 18.4811C114.312 19.247 113.959 20.1628 113.724 21.2283C113.488 22.2939 113.371 23.476 113.371 24.7747V25.7737C113.371 26.9059 113.522 27.9548 113.825 28.9205C114.144 29.8862 114.606 30.727 115.212 31.4429C115.834 32.1422 116.574 32.6916 117.431 33.0912C118.306 33.4742 119.298 33.6656 120.407 33.6656C121.803 33.6656 123.064 33.3993 124.191 32.8665C125.334 32.317 126.326 31.5095 127.167 30.4439L130.521 33.8904C129.95 34.7229 129.176 35.5221 128.201 36.288C127.242 37.0539 126.082 37.6782 124.72 38.1611C123.358 38.6273 121.786 38.8603 120.004 38.8603Z" fill="black"/>
<path d="M151.909 32.6167V0H158.618V38.3609H152.565L151.909 32.6167ZM134.38 25.1743V24.6498C134.38 22.5853 134.616 20.7122 135.086 19.0306C135.574 17.3323 136.28 15.8755 137.205 14.66C138.13 13.4446 139.248 12.5039 140.559 11.8379C141.888 11.1719 143.393 10.8389 145.074 10.8389C146.705 10.8389 148.126 11.1636 149.336 11.8129C150.564 12.4623 151.606 13.3863 152.464 14.5851C153.338 15.7839 154.036 17.2074 154.557 18.8558C155.079 20.4874 155.457 22.2856 155.692 24.2503V25.6738C155.457 27.5885 155.079 29.3451 154.557 30.9434C154.036 32.5418 153.338 33.9404 152.464 35.1391C151.606 36.3213 150.564 37.237 149.336 37.8863C148.109 38.5357 146.671 38.8603 145.024 38.8603C143.359 38.8603 141.863 38.519 140.534 37.8364C139.223 37.1538 138.105 36.1964 137.18 34.9643C136.272 33.7322 135.574 32.2837 135.086 30.6188C134.616 28.9538 134.38 27.139 134.38 25.1743ZM141.064 24.6498V25.1743C141.064 26.3398 141.165 27.4303 141.366 28.446C141.568 29.4616 141.896 30.3607 142.35 31.1432C142.804 31.9091 143.384 32.5085 144.09 32.9414C144.813 33.3743 145.688 33.5907 146.713 33.5907C148.025 33.5907 149.101 33.3077 149.942 32.7416C150.799 32.1589 151.463 31.368 151.934 30.369C152.405 29.3534 152.708 28.2129 152.842 26.9475V23.0265C152.775 22.0275 152.598 21.1035 152.313 20.2543C152.044 19.4052 151.657 18.6726 151.152 18.0566C150.665 17.4405 150.059 16.9577 149.336 16.6081C148.613 16.2584 147.756 16.0836 146.764 16.0836C145.738 16.0836 144.864 16.3084 144.141 16.7579C143.418 17.1908 142.829 17.7985 142.375 18.581C141.921 19.3636 141.585 20.271 141.366 21.3033C141.165 22.3355 141.064 23.4511 141.064 24.6498Z" fill="black"/>
<path d="M181.015 32.6167V0H187.724V38.3609H181.67L181.015 32.6167ZM163.486 25.1743V24.6498C163.486 22.5853 163.721 20.7122 164.192 19.0306C164.68 17.3323 165.386 15.8755 166.311 14.66C167.235 13.4446 168.353 12.5039 169.665 11.8379C170.993 11.1719 172.498 10.8389 174.18 10.8389C175.811 10.8389 177.231 11.1636 178.442 11.8129C179.67 12.4623 180.712 13.3863 181.57 14.5851C182.444 15.7839 183.142 17.2074 183.663 18.8558C184.184 20.4874 184.563 22.2856 184.798 24.2503V25.6738C184.563 27.5885 184.184 29.3451 183.663 30.9434C183.142 32.5418 182.444 33.9404 181.57 35.1391C180.712 36.3213 179.67 37.237 178.442 37.8863C177.215 38.5357 175.777 38.8603 174.129 38.8603C172.465 38.8603 170.968 38.519 169.64 37.8364C168.328 37.1538 167.21 36.1964 166.285 34.9643C165.377 33.7322 164.68 32.2837 164.192 30.6188C163.721 28.9538 163.486 27.139 163.486 25.1743ZM170.169 24.6498V25.1743C170.169 26.3398 170.27 27.4303 170.472 28.446C170.674 29.4616 171.002 30.3607 171.456 31.1432C171.91 31.9091 172.49 32.5085 173.196 32.9414C173.919 33.3743 174.793 33.5907 175.819 33.5907C177.131 33.5907 178.207 33.3077 179.047 32.7416C179.905 32.1589 180.569 31.368 181.04 30.369C181.511 29.3534 181.813 28.2129 181.948 26.9475V23.0265C181.881 22.0275 181.704 21.1035 181.418 20.2543C181.149 19.4052 180.762 18.6726 180.258 18.0566C179.77 17.4405 179.165 16.9577 178.442 16.6081C177.719 16.2584 176.862 16.0836 175.869 16.0836C174.844 16.0836 173.969 16.3084 173.246 16.7579C172.523 17.1908 171.935 17.7985 171.481 18.581C171.027 19.3636 170.691 20.271 170.472 21.3033C170.27 22.3355 170.169 23.4511 170.169 24.6498Z" fill="black"/>
<path d="M236.855 19.2554V21.1284C236.855 23.8756 236.485 26.3481 235.745 28.5459C235.006 30.727 233.955 32.5834 232.593 34.1152C231.231 35.647 229.608 36.8208 227.725 37.6366C225.842 38.4524 223.748 38.8603 221.445 38.8603C219.175 38.8603 217.09 38.4524 215.19 37.6366C213.307 36.8208 211.676 35.647 210.297 34.1152C208.918 32.5834 207.85 30.727 207.094 28.5459C206.337 26.3481 205.959 23.8756 205.959 21.1284V19.2554C205.959 16.4915 206.337 14.019 207.094 11.8379C207.85 9.65681 208.91 7.80037 210.272 6.2686C211.634 4.72018 213.256 3.53806 215.139 2.72222C217.039 1.90639 219.124 1.49847 221.394 1.49847C223.698 1.49847 225.791 1.90639 227.674 2.72222C229.558 3.53806 231.18 4.72018 232.542 6.2686C233.921 7.80037 234.98 9.65681 235.72 11.8379C236.477 14.019 236.855 16.4915 236.855 19.2554ZM229.844 21.1284V19.2054C229.844 17.2241 229.659 15.4842 229.289 13.9857C228.919 12.4706 228.372 11.1969 227.649 10.1646C226.926 9.13235 226.035 8.35814 224.976 7.842C223.916 7.30921 222.723 7.04281 221.394 7.04281C220.049 7.04281 218.855 7.30921 217.813 7.842C216.787 8.35814 215.913 9.13235 215.19 10.1646C214.467 11.1969 213.912 12.4706 213.525 13.9857C213.155 15.4842 212.97 17.2241 212.97 19.2054V21.1284C212.97 23.0931 213.155 24.833 213.525 26.3481C213.912 27.8632 214.467 29.1453 215.19 30.1942C215.93 31.2265 216.821 32.009 217.863 32.5418C218.906 33.0746 220.1 33.341 221.445 33.341C222.79 33.341 223.984 33.0746 225.026 32.5418C226.069 32.009 226.943 31.2265 227.649 30.1942C228.372 29.1453 228.919 27.8632 229.289 26.3481C229.659 24.833 229.844 23.0931 229.844 21.1284Z" fill="black"/>
<path d="M248.886 16.8578V38.3609H242.227V11.3384H248.533L248.886 16.8578ZM257.184 11.1636L257.083 17.3073C256.713 17.2407 256.292 17.1908 255.822 17.1575C255.368 17.1242 254.939 17.1075 254.535 17.1075C253.51 17.1075 252.61 17.2491 251.837 17.5321C251.063 17.7985 250.416 18.1898 249.895 18.7059C249.39 19.2221 249.003 19.8547 248.734 20.604C248.465 21.3366 248.314 22.169 248.28 23.1014L246.843 22.9266C246.843 21.2117 247.019 19.6216 247.372 18.1565C247.726 16.6913 248.238 15.4093 248.911 14.3104C249.584 13.2115 250.424 12.3624 251.433 11.763C252.459 11.147 253.636 10.8389 254.964 10.8389C255.334 10.8389 255.729 10.8722 256.15 10.9388C256.587 10.9888 256.931 11.0637 257.184 11.1636Z" fill="black"/>
<path d="M267.903 0V38.3609H261.219V0H267.903Z" fill="black"/>
<path d="M281.321 0V38.3609H274.637V0H281.321Z" fill="black"/>
<path d="M299.934 38.8603C297.866 38.8603 296.008 38.5274 294.36 37.8614C292.712 37.1954 291.308 36.2713 290.148 35.0892C289.005 33.8904 288.122 32.5002 287.5 30.9185C286.895 29.3201 286.592 27.6052 286.592 25.7737V24.7747C286.592 22.6935 286.895 20.8038 287.5 19.1055C288.105 17.3906 288.963 15.9171 290.072 14.685C291.182 13.4529 292.511 12.5039 294.057 11.8379C295.604 11.1719 297.311 10.8389 299.177 10.8389C301.111 10.8389 302.818 11.1636 304.297 11.8129C305.777 12.4456 307.013 13.3447 308.005 14.5102C308.997 15.6757 309.745 17.0742 310.25 18.7059C310.754 20.3209 311.006 22.1108 311.006 24.0754V26.8476H289.618V22.3022H304.449V21.8028C304.415 20.7538 304.213 19.7965 303.843 18.9307C303.473 18.0483 302.902 17.349 302.128 16.8328C301.355 16.3 300.354 16.0336 299.127 16.0336C298.135 16.0336 297.269 16.2501 296.529 16.683C295.806 17.0992 295.201 17.6986 294.713 18.4811C294.242 19.247 293.889 20.1628 293.654 21.2283C293.418 22.2939 293.301 23.476 293.301 24.7747V25.7737C293.301 26.9059 293.452 27.9548 293.755 28.9205C294.074 29.8862 294.537 30.727 295.142 31.4429C295.764 32.1422 296.504 32.6916 297.361 33.0912C298.236 33.4742 299.228 33.6656 300.338 33.6656C301.733 33.6656 302.994 33.3993 304.121 32.8665C305.264 32.317 306.256 31.5095 307.097 30.4439L310.451 33.8904C309.88 34.7229 309.106 35.5221 308.131 36.288C307.173 37.0539 306.012 37.6782 304.65 38.1611C303.288 38.6273 301.716 38.8603 299.934 38.8603Z" fill="black"/>
<path d="M323.062 31.8675L329.04 11.3384H333.277L332.016 18.4312L325.988 38.3609H322.331L323.062 31.8675ZM319.758 11.3384L324.248 31.9174L324.651 38.3609H320.439L313.276 11.3384H319.758ZM338.826 31.6177L343.214 11.3384H349.671L342.558 38.3609H338.346L338.826 31.6177ZM333.933 11.3384L339.86 31.6677L340.642 38.3609H336.984L330.906 18.4312L329.67 11.3384H333.933Z" fill="black"/>
<path d="M360.667 11.3384V38.3609H353.984V11.3384H360.667ZM353.53 4.27064C353.53 3.28831 353.866 2.47248 354.539 1.82314C355.228 1.1738 356.153 0.849134 357.313 0.849134C358.473 0.849134 359.39 1.1738 360.062 1.82314C360.751 2.47248 361.096 3.28831 361.096 4.27064C361.096 5.23632 360.751 6.04383 360.062 6.69317C359.39 7.34251 358.473 7.66718 357.313 7.66718C356.153 7.66718 355.228 7.34251 354.539 6.69317C353.866 6.04383 353.53 5.23632 353.53 4.27064Z" fill="black"/>
<path d="M373.556 17.1075V38.3609H366.897V11.3384H373.152L373.556 17.1075ZM372.496 23.8756H370.529C370.546 21.911 370.815 20.1295 371.336 18.5311C371.857 16.9327 372.589 15.5591 373.53 14.4103C374.489 13.2615 375.624 12.379 376.935 11.763C378.247 11.147 379.71 10.8389 381.324 10.8389C382.635 10.8389 383.821 11.0221 384.88 11.3884C385.939 11.7547 386.847 12.3374 387.604 13.1366C388.377 13.9358 388.966 14.9847 389.369 16.2834C389.79 17.5654 390 19.1471 390 21.0285V38.3609H383.291V20.9786C383.291 19.7465 383.106 18.7725 382.736 18.0566C382.383 17.3406 381.862 16.8328 381.172 16.5331C380.5 16.2334 379.668 16.0836 378.676 16.0836C377.65 16.0836 376.75 16.2917 375.977 16.708C375.22 17.1075 374.581 17.6653 374.06 18.3812C373.556 19.0972 373.169 19.9213 372.9 20.8537C372.631 21.7861 372.496 22.7934 372.496 23.8756Z" fill="black"/>
</svg>
