<svg width="471" height="67" viewBox="0 0 471 67" fill="none" xmlns="http://www.w3.org/2000/svg">
<path d="M271.074 0.522727C267.944 1.33872 264.025 1.45127 261.346 0.804102C258.075 0.01625 256.722 0.410176 254.296 2.83001C250.772 6.37534 248.234 11.6652 246.909 18.2775C246.232 21.7385 246.232 30.1797 246.909 33.6688C247.444 36.2575 248.741 40.253 249.7 42.1664C252.238 47.1467 256.975 51.6769 262.389 54.2655C265.83 55.9256 268.001 55.5598 272.259 52.6898C274.571 51.1141 278.35 47.4562 280.098 45.1208C282.974 41.266 285.258 35.751 286.16 30.6018C286.64 27.788 286.724 21.0913 286.273 18.3901C285.202 11.6652 282.833 6.31907 279.393 2.80187C276.517 -0.124438 275.079 -0.518364 271.074 0.522727ZM266.365 6.51603C273.528 10.0614 278.801 21.035 278.773 32.4589C278.773 35.7228 278.66 36.567 278.068 38.3959C277.193 41.069 275.896 42.9542 274.233 44.0234C267.803 48.1034 257.116 37.0735 254.296 23.4549C253.704 20.6692 253.704 14.8448 254.296 12.6782C255.283 8.87959 257.145 6.65672 260.077 5.70004C261.543 5.2217 264.504 5.61563 266.365 6.51603Z" fill="black"/>
<path d="M124.556 1.36685C120.806 4.06806 119.03 5.10915 117.084 5.70004C113.954 6.68486 113.926 6.74113 115.279 9.27352L116.407 11.3557V28.182C116.407 46.6402 116.322 48.019 114.8 50.692C113.446 53.1682 113.362 53.14 119.368 53.14C122.244 53.14 125.149 53.2526 125.854 53.3651C126.812 53.5339 127.263 53.5058 127.686 53.1963C128.222 52.7742 128.222 52.718 126.925 50.27C124.444 45.5429 124.077 41.885 124.246 23.1735C124.359 7.89478 124.387 7.72595 125.966 3.16766C126.558 1.45127 126.615 1.0292 126.333 0.719689C126.023 0.410176 125.713 0.522726 124.556 1.36685Z" fill="black"/>
<path d="M325.892 2.09844C323.382 4.03993 321.69 4.96847 319.04 5.86888C316.784 6.62859 316.417 7.10693 317.15 8.34498C318.842 11.1869 318.729 9.58304 318.729 28.2383C318.701 46.8091 318.588 48.4973 317.179 50.9172C315.881 53.14 315.881 53.14 321.831 53.14C324.708 53.14 327.612 53.2526 328.317 53.3651C329.276 53.5339 329.727 53.5058 330.15 53.1682C330.714 52.7461 330.714 52.7461 330.178 51.8176C329.868 51.3111 329.36 50.3825 328.994 49.7635C328.176 48.3285 327.612 46.1338 326.992 42.0538C326.597 39.3245 326.512 36.567 326.512 25.1431C326.512 10.0614 326.681 8.11988 328.289 3.44904C328.881 1.67638 329.022 0.91666 328.796 0.691559C328.627 0.522734 328.401 0.382046 328.289 0.382046C328.204 0.382046 327.104 1.14176 325.892 2.09844Z" fill="black"/>
<path d="M343.093 2.23913C340.357 4.29317 338.835 5.10916 336.494 5.86887C333.872 6.713 333.731 7.10693 335.169 9.41421L336.071 10.8774L336.156 26.9439C336.241 45.2896 336.1 47.7376 334.774 50.3544C333.393 53.14 333.421 53.1682 337.961 53.0556C340.076 52.9993 342.952 53.0837 344.333 53.2526C348.253 53.7309 348.45 53.4777 346.617 50.073C344.277 45.7117 343.685 39.8872 343.91 22.3294C344.051 9.13283 344.192 7.72596 345.687 3.44904C346.392 1.42314 346.448 0.382045 345.856 0.382045C345.715 0.382045 344.474 1.22617 343.093 2.23913Z" fill="black"/>
<path d="M13.2015 2.40795C8.68979 7.36016 4.34726 14.6197 2.0914 21.035C0.0893292 26.6625 -0.55923 33.6407 0.512303 37.9457C2.2324 44.8957 7.27988 50.7483 13.8219 53.4214C19.0667 55.5317 25.9189 55.4754 31.3048 53.2244C39.7361 49.7354 45.6295 40.2811 45.8269 29.9265C45.8833 27.2534 45.6859 26.4093 44.9809 26.1279C44.7271 26.0154 42.5277 25.7621 40.1308 25.5652C35.2243 25.115 31.5022 24.1583 30.3742 23.0328C29.3591 22.0198 29.5283 21.035 31.0228 18.8122C32.7993 16.1391 40.723 5.98142 42.5841 3.95552C44.1068 2.2954 44.5016 1.1699 43.6274 0.832244C43.3736 0.747831 36.8034 0.663419 28.9925 0.663419H14.8088L13.2015 2.40795ZM22.2813 10.5116C27.4134 10.5116 28.0056 10.5678 28.2312 10.9899C28.6823 11.834 28.0902 15.2106 27.2724 16.6737C26.8495 17.4334 23.8886 20.5848 20.2229 24.1864C16.7545 27.6192 13.9065 30.6299 13.9065 30.9113C13.9065 32.0087 17.7132 32.9654 25.8907 33.8658C33.5606 34.7099 35.3653 35.2727 36.6624 37.2423C37.5084 38.4522 37.5084 40.3093 36.7188 41.9413C34.5476 46.387 27.3006 47.2593 20.2511 43.8546C15.9649 41.8006 10.7483 37.1016 8.88718 33.6688C7.42087 30.9113 7.0543 28.7447 7.22348 23.8769C7.39267 19.2905 7.78745 17.3209 9.11277 14.7603C10.7201 11.5808 12.9759 10.0614 15.5984 10.3709C16.1341 10.4553 19.1513 10.5116 22.2813 10.5116Z" fill="black"/>
<path d="M186.903 2.26725C183.998 3.95551 181.912 4.7715 179.938 5.02474C177.795 5.30611 177.597 5.58749 178.443 7.21947C179.938 9.97695 179.994 10.7085 179.994 24.8617C179.994 41.266 179.628 45.4585 177.964 48.1597C176.864 49.9323 174.636 50.4107 172.916 49.257C170.858 47.8783 169.448 44.8113 168.94 40.5625C168.292 35.1038 170.012 26.8876 172.493 23.6518C173.537 22.2731 176.272 19.9939 177.823 19.2061C180.163 17.9962 179.289 16.8988 175.736 16.5893C174.467 16.4767 172.719 16.1391 171.845 15.8296C169.194 14.8729 169.251 14.8729 167.361 16.2798C163.132 19.4593 160.819 25.2838 160.819 32.8247C160.819 40.3093 163.639 47.625 168.01 51.508C170.35 53.6184 171.45 53.8997 175.313 53.5621C179.712 53.1682 184.449 53.0837 187.777 53.3933C189.948 53.5902 190.681 53.5621 190.85 53.2807C190.963 53.0837 190.568 51.902 189.892 50.5232C189.187 48.9757 188.651 47.3155 188.454 46.0775C188.002 43.0949 188.228 8.23242 188.707 6.71299C188.905 6.09397 189.441 4.74336 189.92 3.70227C190.625 2.12657 190.738 1.73264 190.427 1.36685C189.892 0.719686 189.328 0.860374 186.903 2.26725Z" fill="black"/>
<path d="M221.023 1.95774C218.344 3.58972 215.862 4.63081 213.719 4.9966C211.858 5.30612 211.717 5.39053 211.745 6.00956C211.774 6.40348 212.168 7.52899 212.591 8.54194L213.409 10.3709L213.494 24.4959C213.578 40.6469 213.324 44.5581 211.971 47.2874C209.828 51.705 205.344 50.3263 203.37 44.6143C201.82 40.0842 202.271 32.2619 204.442 26.8595C205.795 23.4549 207.064 22.0198 210.758 19.6C212.337 18.6152 212.732 18.2213 212.648 17.7429C212.535 17.0114 211.999 16.8425 208.615 16.4486C207.234 16.3079 205.401 15.8858 204.583 15.5482C203.088 14.9292 203.06 14.9292 202.073 15.4356C200.551 16.2798 197.703 19.4593 196.687 21.5415C194.009 26.9721 193.642 35.6103 195.813 42.1101C197.223 46.387 199.705 50.1574 202.384 52.1833C204.357 53.6746 205.316 53.8997 208.785 53.5621C213.014 53.1682 218.034 53.1119 221.361 53.3933C224.886 53.7028 225.055 53.5339 223.758 51.086C221.812 47.4281 221.869 48.1878 221.953 27.1127C222.009 16.1954 222.179 7.58526 222.32 6.85368C222.489 6.15024 222.996 4.7715 223.476 3.81482C224.153 2.43608 224.294 1.90147 224.068 1.56382C223.589 0.775964 222.799 0.888514 221.023 1.95774Z" fill="black"/>
<path d="M426.531 5.89701C426.193 6.76928 426.701 9.94882 427.434 11.4683C428.28 13.2409 429.831 14.7322 430.846 14.7322C431.833 14.7322 434.145 12.4812 434.85 10.8492C435.555 9.24538 436.175 6.00956 435.837 5.70005C435.724 5.5875 434.624 5.61564 433.44 5.75632C432.002 5.92515 430.648 5.92515 429.492 5.72819C427.095 5.3624 426.729 5.3624 426.531 5.89701Z" fill="black"/>
<path d="M138.655 15.8014C137.725 15.9421 135.751 17.7711 134.567 19.5719C130.732 25.5089 129.378 37.0735 131.719 43.8546C134.736 52.5491 143.139 56.6572 150.527 53.0275C152.67 51.9582 154.108 50.4388 155.236 48.0471C157.154 43.9672 156.251 40.7032 153.883 43.1793C153.431 43.6577 152.444 44.3892 151.655 44.7832C150.414 45.4303 149.907 45.5147 147.566 45.5429C145.197 45.5429 144.718 45.4585 143.28 44.755C140.432 43.3481 138.007 40.056 136.992 36.2293C135.723 31.3334 137.246 23.6518 139.953 21.3727C141.193 20.3316 142.801 20.3597 143.562 21.4008C144.38 22.5826 145.479 25.3119 146.438 28.6322C147.425 32.065 147.369 32.3745 145.508 33.2749C143.59 34.2034 142.49 34.0346 140.714 32.5714C139.699 31.6992 139.53 31.7273 138.515 32.7121C136.569 34.6818 138.345 37.805 141.419 37.805C142.462 37.805 147.566 36.9609 150.386 36.3137C151.401 36.0886 152.924 35.8073 153.798 35.7229C154.644 35.6103 155.772 35.2727 156.279 34.9631C157.21 34.4004 157.238 34.3722 157.069 32.7403C156.928 31.052 152.67 17.9399 151.88 16.73L151.458 16.0547L147.171 16.2516C144.07 16.3923 142.406 16.3642 141.081 16.0828C140.065 15.8577 138.966 15.7452 138.655 15.8014Z" fill="black"/>
<path d="M358.235 15.914C356.064 16.5049 353.019 21.035 351.721 25.7059C349.889 32.3182 349.889 39.9435 351.75 44.6143C352.567 46.7246 354.626 49.7072 356.177 51.0297C361.168 55.3347 368.33 55.4473 372.701 51.3111C374.9 49.2289 376.479 45.2896 375.972 43.1512C375.718 42.0538 375.013 42.1664 373.321 43.5451C369.43 46.6965 363.79 46.3026 360.237 42.6447C355.867 38.1708 354.992 29.5326 358.292 23.3423C359.673 20.7818 361.873 19.8532 363.226 21.2883C364.27 22.3856 366.948 29.8139 366.948 31.5866C366.948 32.7403 364.298 34.0627 362.578 33.7532C362.07 33.6407 361.196 33.1905 360.604 32.7403C359.363 31.7554 358.574 31.9243 357.84 33.3311C356.938 35.0475 357.812 36.8765 359.843 37.5518C361.055 37.9457 362.944 37.7488 368.64 36.6514C371.037 36.173 373.688 35.6666 374.506 35.4977C376.169 35.1882 377.1 34.4848 377.1 33.5C377.1 32.5433 376.141 29.2231 374.083 23.1735C372.137 17.4053 371.855 16.7018 371.347 16.336C371.178 16.2235 369.063 16.1954 366.666 16.2798C363.48 16.3923 361.873 16.336 360.745 16.0547C359.702 15.8014 358.884 15.7733 358.235 15.914Z" fill="black"/>
<path d="M442.379 15.8577C440.236 16.1672 440.208 16.3361 441.505 19.9658C442.52 22.7514 443.027 25.9028 443.422 31.6992C443.958 39.6903 443.253 45.9087 441.223 50.6639C440.264 52.8868 440.461 53.4495 442.125 53.3651C443.619 53.2807 451.148 53.2807 452.502 53.3651C454.222 53.4495 454.419 52.8024 453.348 50.8046C451.459 47.3437 450.979 44.3048 450.979 35.554C451.007 23.68 451.966 20.7818 455.914 20.7818C457.662 20.7818 458.621 21.4571 459.213 23.1454C459.664 24.4397 459.664 30.2923 459.157 39.3807C458.621 49.5103 458.988 53.0275 460.651 53.4214C461.018 53.5339 462.202 53.4777 463.274 53.337C464.486 53.1682 466.009 53.1682 467.391 53.3651C469.872 53.6746 471 53.5058 471 52.7742C471 52.521 470.408 51.3392 469.703 50.1856C468.321 47.8502 467.757 46.2463 467.362 43.2919C466.46 36.8202 466.798 28.9698 468.208 21.9073C468.66 19.5719 469.111 17.4616 469.195 17.2083C469.505 16.1391 466.065 15.4919 462.061 15.914C460.764 16.0265 458.621 16.2516 457.267 16.3923C455.012 16.6456 452.333 16.5049 444.494 15.7733C443.958 15.717 442.999 15.7452 442.379 15.8577Z" fill="black"/>
<path d="M297.017 16.1954C296.312 16.3361 294.733 16.3923 293.492 16.3079C289.939 16.111 289.403 16.8144 291.434 19.1498C292.928 20.8662 293.774 22.7796 294.169 25.3401C294.564 27.8725 294.564 42.9823 294.197 46.387C293.802 49.7635 293.718 50.0449 292.59 51.508C291.264 53.2244 291.405 53.7028 293.21 53.6746C294.846 53.6184 302.544 53.6184 305.053 53.6746C306.604 53.7028 306.745 53.6465 306.83 53.0556C306.914 52.6054 306.52 52.0708 305.364 51.0297C302.797 48.6661 302.797 48.6661 302.797 36.8202C302.797 24.0458 302.741 24.2427 306.604 25.2838C307.45 25.5089 308.747 25.7059 309.452 25.7059C311.257 25.7059 311.793 25.115 312.357 22.4138C312.61 21.2039 313.118 19.2624 313.485 18.1087C313.851 16.9551 314.133 15.9703 314.077 15.914C314.049 15.8577 312.921 16.0547 311.595 16.3361C309.537 16.7581 308.916 16.7581 307.535 16.4767C304.574 15.8859 304.236 16.0547 303.305 18.5026C303.023 19.2624 302.656 19.9377 302.459 19.9939C302.29 20.0502 301.811 19.3749 301.388 18.4745C300.147 15.7452 299.837 15.6045 297.017 16.1954Z" fill="black"/>
<path d="M65.0863 16.6174C63.197 16.9832 62.3511 16.9832 59.8414 16.7018C57.0216 16.3642 56.796 16.3923 55.7245 16.9551C50.0002 19.8533 47.7444 32.8247 51.2973 42.2789C53.0174 46.8091 56.6832 50.9734 60.9693 53.2244L63.2816 54.4625L65.1991 53.3088C70.2466 50.3263 74.0533 45.1489 75.6888 39.0712C76.5912 35.8354 76.5912 29.0824 75.6888 25.8466C74.5891 21.7666 72.3332 17.7992 70.5003 16.7018C69.457 16.0547 68.3009 16.0265 65.0863 16.6174ZM62.9432 21.4852C68.6675 24.3834 73.1228 38.5647 69.7954 43.2919C66.5244 47.9346 59.8132 42.3633 56.8806 32.5996C55.8373 29.0824 55.7809 25.0024 56.7114 23.2298C57.078 22.5826 57.7547 21.7666 58.2623 21.4852C59.4466 20.7537 61.5333 20.7537 62.9432 21.4852Z" fill="black"/>
<path d="M92.5796 16.6174C87.8423 18.2776 83.3587 24.8055 81.5541 32.7121C80.7363 36.3137 80.5389 42.3915 81.1311 45.374C82.259 50.9172 85.53 54.2937 90.0981 54.6313C92.6078 54.8001 94.2433 54.3218 95.8224 52.9431C97.4861 51.4799 98.1064 49.6228 97.627 47.4281C97.2887 45.7117 96.9221 45.4585 95.7096 46.0775C93.3127 47.3155 90.4647 45.6273 89.4496 42.3352C88.9702 40.7876 88.801 33.6407 89.1958 30.9957C89.9007 26.0998 91.4516 22.7796 93.6793 21.2883C94.779 20.5567 95.8506 20.4723 97.2323 21.035C99.2625 21.8792 99.178 21.3446 99.3471 37.383L99.4881 51.7331L100.842 54.575C101.575 56.1226 102.167 57.7546 102.167 58.2329C102.167 61.0185 98.191 63.4102 93.4255 63.4947C89.9007 63.5509 89.0266 62.5942 90.0699 59.7242C90.6339 58.2048 90.6339 58.0078 90.2391 57.4169C89.8443 56.7979 89.5341 56.7135 87.0245 56.5728C83.5843 56.3758 82.6256 56.7698 81.6104 58.7113C80.0031 61.8627 82.2872 65.0985 87.0809 66.421C89.3086 67.0119 93.3409 67.1807 96.4145 66.7868C102.646 66.027 106.256 64.0574 108.089 60.4839C108.991 58.7113 109.076 58.3173 109.16 55.7005C109.245 53.0556 109.188 52.6335 108.258 49.7354C106.763 45.0927 106.622 43.4044 106.961 32.9654C107.102 27.9569 107.299 23.5674 107.412 23.1735C107.496 22.7796 107.891 21.4852 108.286 20.3035C108.653 19.0935 108.935 17.7992 108.878 17.3772C108.737 16.111 108.201 15.9984 104.507 16.3923C102.054 16.6456 100.531 16.6456 98.6422 16.4486C95.2584 16.0547 94.1023 16.0828 92.5796 16.6174Z" fill="black"/>
<path d="M379.638 16.533C379.187 16.9832 379.299 17.2365 380.314 18.4464C380.85 19.0654 381.499 20.1628 381.753 20.8943C382.542 23.1453 384.093 46.4995 383.755 51.4236L383.585 54.2092L385.193 54.0404C386.292 53.9279 387.618 53.4777 389.197 52.6898C392.271 51.1704 395.541 48.019 397.685 44.5018L399.179 42.0257L399.799 43.5451C400.674 45.6836 402.309 48.5817 403.634 50.3544C404.734 51.7894 407.751 54.1248 408.541 54.1248C409.189 54.1248 413.588 49.1726 414.942 46.9216C418.777 40.5344 421.061 31.2208 420.271 25.115C419.707 20.8381 418.579 18.3057 416.634 16.9551C415.647 16.2798 415.59 16.2798 409.274 16.3642C402.76 16.4767 401.971 16.6174 402.337 17.6022C402.422 17.8273 403.465 18.4464 404.678 18.9528C407.582 20.2472 409.641 22.3012 411.192 25.4808C412.771 28.6885 413.222 30.5737 413.391 34.8506C413.56 39.0149 413.25 41.0409 412.178 42.6447C410.853 44.6706 408.738 43.8827 407.075 40.7032C405.862 38.4241 404.565 34.6255 403.578 30.4893C402.563 26.1842 402.281 25.4245 401.52 25.1431C400.617 24.8055 399.461 25.3682 398.982 26.3812C398.756 26.8876 398.22 28.801 397.826 30.6581C396.19 38.199 395.316 40.7032 393.737 42.2789C392.496 43.517 391.791 43.4044 391.199 41.9131C390.466 39.9716 389.93 21.8792 390.579 20.3316C390.72 19.9377 391.396 19.0091 392.017 18.2775C392.637 17.5741 393.088 16.7863 393.004 16.5893C392.863 16.2516 391.678 16.1954 386.377 16.2235C382.429 16.2235 379.807 16.3642 379.638 16.533Z" fill="black"/>
<path d="M424.135 16.7863C423.909 17.2083 424.022 17.5741 424.698 18.5027C426.052 20.3879 426.419 21.2883 426.87 23.9332C427.828 29.2793 427.687 42.4477 426.616 46.8653C426.419 47.7376 425.714 49.3696 425.065 50.4388C423.599 52.8586 423.627 53.4495 425.178 53.3651C426.729 53.2807 433.609 53.2807 435.301 53.3651C437.247 53.4495 437.444 52.9993 436.514 50.6639C435.245 47.4844 435.132 46.0494 435.245 33.6688C435.357 22.2168 435.386 22.1887 436.147 19.4031C436.542 17.8836 436.824 16.5612 436.739 16.4486C436.626 16.3642 433.835 16.2798 430.507 16.2798C424.811 16.2516 424.417 16.2798 424.135 16.7863Z" fill="black"/>
</svg>
