<svg width="113" height="25" viewBox="0 0 113 25" fill="none" xmlns="http://www.w3.org/2000/svg">
<path d="M11.3438 0.421875C15.3958 0.421875 18.3958 1.72396 20.3438 4.32812C21.8646 6.35938 22.625 8.95833 22.625 12.125C22.625 15.5521 21.7552 18.401 20.0156 20.6719C17.974 23.3385 15.0625 24.6719 11.2812 24.6719C7.75 24.6719 4.97396 23.5052 2.95312 21.1719C1.15104 18.9219 0.25 16.0781 0.25 12.6406C0.25 9.53646 1.02083 6.88021 2.5625 4.67188C4.54167 1.83854 7.46875 0.421875 11.3438 0.421875ZM11.6562 21.8906C14.3958 21.8906 16.375 20.9115 17.5938 18.9531C18.8229 16.9844 19.4375 14.724 19.4375 12.1719C19.4375 9.47396 18.7292 7.30208 17.3125 5.65625C15.9062 4.01042 13.9792 3.1875 11.5312 3.1875C9.15625 3.1875 7.21875 4.00521 5.71875 5.64062C4.21875 7.26562 3.46875 9.66667 3.46875 12.8438C3.46875 15.3854 4.10938 17.5312 5.39062 19.2812C6.68229 21.0208 8.77083 21.8906 11.6562 21.8906Z" fill="black"/>
<path d="M26.0469 7.26562H28.7188V10.1562C28.9375 9.59375 29.474 8.91146 30.3281 8.10938C31.1823 7.29688 32.1667 6.89062 33.2812 6.89062C33.3333 6.89062 33.4219 6.89583 33.5469 6.90625C33.6719 6.91667 33.8854 6.9375 34.1875 6.96875V9.9375C34.0208 9.90625 33.8646 9.88542 33.7188 9.875C33.5833 9.86458 33.4323 9.85938 33.2656 9.85938C31.849 9.85938 30.7604 10.3177 30 11.2344C29.2396 12.1406 28.8594 13.1875 28.8594 14.375V24H26.0469V7.26562Z" fill="black"/>
<path d="M36.7031 1.04688H39.5156V24H36.7031V1.04688Z" fill="black"/>
<path d="M43.8281 1.04688H46.6406V24H43.8281V1.04688Z" fill="black"/>
<path d="M57.8438 6.89062C59.0312 6.89062 60.1823 7.17188 61.2969 7.73438C62.4115 8.28646 63.2604 9.00521 63.8438 9.89062C64.4062 10.7344 64.7812 11.7188 64.9688 12.8438C65.1354 13.6146 65.2188 14.8438 65.2188 16.5312H52.9531C53.0052 18.2292 53.4062 19.5938 54.1562 20.625C54.9062 21.6458 56.0677 22.1562 57.6406 22.1562C59.1094 22.1562 60.2812 21.6719 61.1562 20.7031C61.6562 20.1406 62.0104 19.4896 62.2188 18.75H64.9844C64.9115 19.3646 64.6667 20.0521 64.25 20.8125C63.8438 21.5625 63.3854 22.1771 62.875 22.6562C62.0208 23.4896 60.9635 24.0521 59.7031 24.3438C59.026 24.5104 58.2604 24.5938 57.4062 24.5938C55.3229 24.5938 53.5573 23.8385 52.1094 22.3281C50.6615 20.8073 49.9375 18.6823 49.9375 15.9531C49.9375 13.2656 50.6667 11.0833 52.125 9.40625C53.5833 7.72917 55.4896 6.89062 57.8438 6.89062ZM62.3281 14.2969C62.2135 13.0781 61.9479 12.1042 61.5312 11.375C60.7604 10.0208 59.474 9.34375 57.6719 9.34375C56.3802 9.34375 55.2969 9.8125 54.4219 10.75C53.5469 11.6771 53.0833 12.8594 53.0312 14.2969H62.3281Z" fill="black"/>
<path d="M69.9844 7.26562L73.2031 20.4531L76.4688 7.26562H79.625L82.9062 20.375L86.3281 7.26562H89.1406L84.2812 24H81.3594L77.9531 11.0469L74.6562 24H71.7344L66.9062 7.26562H69.9844Z" fill="black"/>
<path d="M91.8125 7.34375H94.6719V24H91.8125V7.34375ZM91.8125 1.04688H94.6719V4.23438H91.8125V1.04688Z" fill="black"/>
<path d="M98.9375 7.26562H101.609V9.64062C102.401 8.66146 103.24 7.95833 104.125 7.53125C105.01 7.10417 105.995 6.89062 107.078 6.89062C109.453 6.89062 111.057 7.71875 111.891 9.375C112.349 10.2812 112.578 11.5781 112.578 13.2656V24H109.719V13.4531C109.719 12.4323 109.568 11.6094 109.266 10.9844C108.766 9.94271 107.859 9.42188 106.547 9.42188C105.88 9.42188 105.333 9.48958 104.906 9.625C104.135 9.85417 103.458 10.3125 102.875 11C102.406 11.5521 102.099 12.125 101.953 12.7188C101.818 13.3021 101.75 14.1406 101.75 15.2344V24H98.9375V7.26562Z" fill="black"/>
</svg>
