<svg width="251" height="251" viewBox="0 0 251 251" fill="none" xmlns="http://www.w3.org/2000/svg">
<path d="M203.573 162.32C202.206 167.003 199.497 171.255 195.83 174.474C196.059 174.84 196.261 175.23 196.432 175.642C198.129 179.721 196.199 184.404 192.119 186.102C186.165 188.579 179.346 189.308 172.241 187.71L170.312 187.277C169.647 187.127 169.019 186.898 168.438 186.603C167.786 186.621 167.121 186.559 166.455 186.41L164.527 185.976C162.842 185.597 161.148 185.483 159.49 185.611C157.059 185.799 154.797 184.879 153.201 183.277C153.128 185.537 152.101 187.752 150.194 189.273C148.895 190.31 147.733 191.549 146.759 192.975L145.645 194.607C145.26 195.17 144.816 195.669 144.327 196.101C144.103 196.713 143.8 197.308 143.415 197.872L142.301 199.504C138.194 205.518 132.71 209.636 126.665 211.885C122.524 213.425 117.919 211.317 116.378 207.176C116.222 206.758 116.104 206.335 116.021 205.911C111.145 206.058 106.264 204.796 102.07 202.303C101.792 202.634 101.484 202.946 101.145 203.237C97.7898 206.112 92.7394 205.722 89.8646 202.367C85.6679 197.47 82.8683 191.21 82.1918 183.958L82.0082 181.991C81.9449 181.311 81.9684 180.644 82.0696 180C81.8509 179.385 81.7044 178.734 81.6411 178.055L81.4575 176.087C81.2971 174.367 80.882 172.72 80.2481 171.184C79.3179 168.929 79.4937 166.494 80.5249 164.481C78.3523 165.109 75.9284 164.817 73.8928 163.474C72.5055 162.559 70.9679 161.837 69.3107 161.351L67.4139 160.796C66.7593 160.604 66.1478 160.336 65.5863 160.004C64.9345 159.98 64.275 159.876 63.6204 159.684L61.7236 159.129C54.7343 157.081 49.124 153.138 45.1171 148.084C42.3722 144.622 42.9537 139.59 46.4159 136.845C46.7656 136.568 47.1312 136.325 47.5089 136.115C45.8622 131.523 45.5545 126.491 46.6292 121.732C46.2288 121.57 45.8362 121.373 45.4554 121.14C41.6845 118.838 40.4941 113.915 42.7966 110.144C46.1577 104.639 51.2457 100.042 57.9333 97.1577L59.7482 96.375C60.3746 96.1049 61.0165 95.921 61.6606 95.8182C62.1774 95.4203 62.7517 95.0797 63.378 94.8096L65.193 94.0268C66.7786 93.3429 68.2168 92.4392 69.4822 91.3615C71.3389 89.7801 73.7092 89.1949 75.9421 89.5536C74.6733 87.6815 74.202 85.286 74.8505 82.9349C75.2925 81.3326 75.5038 79.6472 75.4534 77.9211L75.3958 75.9454C75.3759 75.2636 75.442 74.5992 75.5841 73.9626C75.4051 73.3354 75.3005 72.676 75.2806 71.9941L75.223 70.0184C75.0106 62.7385 77.0266 56.1844 80.5951 50.8118C83.0396 47.1314 88.0049 46.1295 91.6853 48.5741C92.0569 48.8209 92.4013 49.0935 92.7176 49.3879C96.5761 46.4027 101.267 44.555 106.125 44.1067C106.155 43.6757 106.221 43.2415 106.325 42.8075C107.349 38.5096 111.664 35.8561 115.962 36.8806C122.236 38.3761 128.18 41.7946 132.989 47.2636L134.295 48.7478C134.745 49.2601 135.118 49.8137 135.415 50.3945C135.953 50.7631 136.455 51.204 136.905 51.7162L138.21 53.2005C139.351 54.4972 140.655 55.5857 142.071 56.4562C144.149 57.7333 145.438 59.8067 145.786 62.0412C147.175 60.256 149.307 59.0675 151.744 58.9578C153.404 58.883 155.072 58.5631 156.699 57.9818L158.56 57.3165C159.202 57.0869 159.854 56.9444 160.504 56.8828C161.045 56.5188 161.64 56.2155 162.282 55.9859L164.143 55.3205C171.001 52.869 177.857 52.7609 184.07 54.4946C188.326 55.6821 190.813 60.0948 189.625 64.3505C189.505 64.7802 189.352 65.192 189.17 65.5837C193.202 68.331 196.408 72.2211 198.336 76.7027C198.755 76.5985 199.189 76.5271 199.633 76.4914C204.037 76.1376 207.894 79.4211 208.248 83.8252C208.765 90.2542 207.35 96.9638 203.635 103.228L202.627 104.928C202.279 105.515 201.868 106.041 201.407 106.503C201.223 107.128 200.958 107.741 200.611 108.328L199.602 110.028C198.721 111.513 198.089 113.09 197.699 114.706C197.126 117.076 195.553 118.943 193.535 119.965C195.662 120.734 197.452 122.395 198.309 124.678C198.893 126.234 199.713 127.722 200.768 129.089L201.976 130.653C202.393 131.193 202.73 131.77 202.989 132.368C203.503 132.77 203.975 133.242 204.392 133.782L205.6 135.347C210.05 141.112 212.272 147.599 212.543 154.043C212.728 158.457 209.3 162.186 204.886 162.372C204.44 162.391 204.001 162.373 203.573 162.32Z" fill="white" stroke="#9BDAC3" stroke-width="16" stroke-linecap="round" stroke-linejoin="round" stroke-dasharray="28 28"/>
</svg>
