<svg width="180" height="180" viewBox="0 0 180 180" fill="none" xmlns="http://www.w3.org/2000/svg">
<rect width="180" height="180" fill="#FFEDDC"/>
<path d="M22 107.38L29.6455 71H37.1415L30.7911 101.3H49.3693L48.0992 107.38H22Z" fill="#FF8A00"/>
<path d="M78.6812 96.4111H60.7504C60.7338 96.6924 60.7255 96.9074 60.7255 97.0563C60.7255 98.81 61.2236 100.224 62.2197 101.3C63.2325 102.375 64.4611 102.913 65.9055 102.913C68.2797 102.913 70.1309 101.689 71.4591 99.2401L77.8594 100.307C76.6142 102.871 74.9456 104.799 72.8537 106.089C70.7784 107.363 68.4457 108 65.8557 108C62.3028 108 59.4139 106.883 57.1892 104.65C54.9644 102.4 53.852 99.4304 53.852 95.7411C53.852 92.1346 54.8565 88.9251 56.8654 86.1127C59.6048 82.3076 63.5147 80.4051 68.5951 80.4051C71.8326 80.4051 74.406 81.406 76.3153 83.4078C78.2246 85.393 79.1793 88.1806 79.1793 91.7706C79.1793 93.4912 79.0132 95.038 78.6812 96.4111ZM72.6545 92.0684C72.6711 91.7541 72.6794 91.5142 72.6794 91.3488C72.6794 89.3966 72.2394 87.9325 71.3595 86.9564C70.4795 85.9803 69.3007 85.4923 67.8231 85.4923C66.3455 85.4923 65.0173 86.0465 63.8385 87.1549C62.6763 88.2634 61.8877 89.9012 61.4726 92.0684H72.6545Z" fill="#FF8A00"/>
<path d="M86.9493 81.0255H93.7231L93.0258 84.45C94.7193 82.9942 96.2965 81.9602 97.7576 81.3481C99.2352 80.7194 100.788 80.4051 102.415 80.4051C104.59 80.4051 106.3 81.0255 107.545 82.2663C108.807 83.507 109.437 85.1531 109.437 87.2046C109.437 88.131 109.164 89.8846 108.616 92.4655L105.503 107.38H98.3552L101.493 92.4158C101.958 90.1824 102.19 88.8507 102.19 88.4205C102.19 87.5106 101.917 86.7992 101.369 86.2864C100.837 85.757 100.09 85.4923 99.1273 85.4923C98.0813 85.4923 96.9191 85.9307 95.6407 86.8075C94.3623 87.6843 93.3579 88.8424 92.6274 90.2817C92.0961 91.3074 91.4984 93.4002 90.8343 96.56L88.568 107.38H81.4206L86.9493 81.0255Z" fill="#FF8A00"/>
<path d="M114.294 86.3112L115.389 81.0255H118.876L119.748 76.8068L127.941 71.8934L126.023 81.0255H130.382L129.286 86.3112H124.903L122.587 97.3541C122.172 99.3559 121.964 100.497 121.964 100.779C121.964 101.325 122.138 101.755 122.487 102.069C122.836 102.367 123.467 102.516 124.38 102.516C124.695 102.516 125.484 102.458 126.746 102.342L125.625 107.628C124.396 107.876 123.135 108 121.84 108C119.316 108 117.481 107.52 116.336 106.561C115.19 105.585 114.617 104.236 114.617 102.516C114.617 101.705 114.925 99.8357 115.539 96.9074L117.755 86.3112H114.294Z" fill="#FF8A00"/>
<path d="M130.531 96.436C130.531 91.5556 131.909 87.6678 134.665 84.7726C137.438 81.8609 141.074 80.4051 145.573 80.4051C149.475 80.4051 152.521 81.4804 154.713 83.6311C156.904 85.7653 158 88.6439 158 92.2669C158 96.5352 156.63 100.224 153.891 103.335C151.151 106.445 147.482 108 142.883 108C140.393 108 138.185 107.504 136.259 106.511C134.333 105.518 132.897 104.112 131.951 102.292C131.004 100.473 130.531 98.5205 130.531 96.436ZM150.902 91.3488C150.902 89.6613 150.404 88.313 149.408 87.3038C148.429 86.2781 147.159 85.7653 145.598 85.7653C144.054 85.7653 142.684 86.245 141.489 87.2046C140.293 88.1476 139.364 89.529 138.7 91.3488C138.035 93.152 137.703 94.8147 137.703 96.3367C137.703 98.2227 138.218 99.7199 139.247 100.828C140.277 101.937 141.572 102.491 143.132 102.491C145.092 102.491 146.735 101.655 148.063 99.9846C149.956 97.6188 150.902 94.7402 150.902 91.3488Z" fill="#FF8A00"/>
</svg>
