<?xml version="1.0" standalone="no"?>
<!DOCTYPE svg PUBLIC "-//W3C//DTD SVG 20010904//EN"
 "http://www.w3.org/TR/2001/REC-SVG-20010904/DTD/svg10.dtd">
<svg version="1.0" xmlns="http://www.w3.org/2000/svg"
 width="700.000000pt" height="700.000000pt" viewBox="0 0 700.000000 700.000000"
 preserveAspectRatio="xMidYMid meet">
<metadata>
Created by potrace 1.14, written by Peter Selinger 2001-2017
</metadata>
<g transform="translate(0.000000,700.000000) scale(0.100000,-0.100000)"
fill="#000000" stroke="none">
<path d="M3061 5688 c-43 -12 -71 -30 -152 -98 -36 -30 -85 -71 -110 -91 -24
-20 -154 -128 -289 -240 -135 -112 -339 -282 -455 -378 -115 -95 -232 -193
-260 -216 -27 -23 -124 -104 -215 -179 -91 -76 -174 -145 -185 -154 -11 -9
-36 -30 -55 -46 -41 -33 -59 -48 -280 -232 -91 -76 -185 -154 -210 -175 -279
-232 -266 -220 -295 -270 -15 -26 -20 -52 -20 -111 0 -69 3 -81 30 -120 25
-35 199 -187 459 -401 68 -55 360 -298 386 -320 14 -12 50 -42 80 -67 30 -25
57 -47 60 -50 3 -3 30 -25 60 -50 30 -25 57 -47 60 -50 3 -3 97 -81 210 -174
113 -93 210 -175 215 -181 6 -6 19 -17 31 -25 11 -8 43 -34 70 -57 67 -57 371
-310 424 -353 24 -19 48 -40 54 -45 6 -6 36 -30 66 -55 30 -24 87 -72 126
-105 139 -119 170 -136 249 -137 68 -1 128 26 174 78 36 41 61 103 61 152 0
39 -31 118 -57 147 -24 25 -95 88 -167 145 -10 8 -23 20 -30 25 -6 6 -81 68
-166 139 -85 70 -166 138 -180 149 -22 19 -59 50 -159 132 -13 11 -32 27 -41
35 -9 8 -52 44 -95 80 -44 36 -91 75 -105 87 -21 18 -595 496 -755 628 -199
165 -388 323 -427 358 l-48 42 171 140 c94 77 178 147 188 155 9 8 41 35 71
60 30 25 64 52 75 62 26 21 215 179 235 195 8 7 197 164 420 349 223 185 509
423 635 528 127 105 235 195 241 201 7 5 31 26 55 45 136 111 171 212 113 328
-48 97 -160 148 -263 120z"/>
<path d="M4615 5690 c-17 -4 -44 -15 -60 -26 -24 -15 -225 -177 -271 -219 -6
-5 -29 -24 -50 -42 -22 -17 -127 -105 -235 -195 -107 -90 -215 -179 -239 -198
-24 -19 -48 -40 -54 -45 -6 -6 -76 -64 -156 -130 -80 -66 -154 -127 -165 -137
-11 -9 -121 -101 -245 -203 -124 -103 -236 -197 -250 -208 -14 -12 -61 -51
-105 -87 -44 -36 -82 -67 -85 -71 -3 -3 -99 -83 -215 -179 -115 -95 -212 -176
-215 -179 -3 -3 -27 -24 -55 -46 -69 -55 -91 -80 -116 -132 -30 -61 -23 -156
15 -213 31 -47 27 -44 271 -246 105 -86 210 -174 235 -194 25 -21 77 -64 115
-97 39 -32 79 -66 90 -75 11 -9 92 -76 180 -149 187 -155 461 -383 490 -407
11 -10 61 -51 110 -92 50 -41 92 -77 95 -80 3 -3 41 -34 85 -70 44 -35 82 -67
85 -70 5 -6 561 -467 640 -532 57 -46 90 -59 155 -59 151 -2 260 135 225 282
-7 27 -24 64 -39 83 -15 19 -140 128 -277 242 -137 113 -269 223 -294 244 -25
21 -241 201 -480 399 -239 199 -455 379 -480 400 -39 33 -166 138 -210 174
-60 49 -267 223 -276 231 -6 6 -45 38 -87 71 -42 33 -76 62 -76 65 0 3 19 20
42 39 23 18 62 50 87 71 25 21 237 197 471 391 544 452 478 397 713 593 72 60
151 125 175 145 24 20 65 54 90 76 26 22 118 99 205 170 87 72 164 135 170
140 6 6 52 44 101 85 50 41 101 86 114 99 78 81 78 229 -1 314 -52 56 -144 84
-223 67z"/>
<path d="M6150 5684 c-40 -12 -103 -58 -230 -167 -14 -12 -77 -65 -140 -117
-63 -52 -124 -103 -135 -112 -11 -9 -108 -89 -215 -178 -107 -89 -215 -179
-240 -200 -25 -21 -92 -77 -150 -125 -58 -48 -125 -104 -150 -125 -25 -21
-142 -118 -260 -216 -1010 -837 -949 -784 -978 -839 -24 -47 -25 -153 -1 -202
27 -55 51 -77 554 -493 242 -200 442 -367 445 -370 3 -3 30 -25 60 -50 30 -25
57 -47 60 -50 4 -4 346 -288 435 -361 11 -10 56 -47 100 -84 44 -37 89 -74
100 -83 86 -72 516 -429 580 -481 44 -36 86 -72 93 -79 48 -45 161 -57 233
-25 79 36 139 127 139 212 0 37 -25 106 -49 137 -16 20 -220 194 -389 332 -23
19 -50 41 -60 50 -11 10 -39 33 -63 53 -135 113 -981 817 -1019 849 -25 20
-74 62 -110 91 -85 70 -96 80 -150 125 -25 22 -65 55 -89 74 -24 19 -48 40
-55 45 -6 6 -36 30 -66 55 -30 25 -57 47 -60 50 -3 3 -31 27 -63 53 l-57 49
212 176 c117 98 222 185 233 194 29 25 504 419 717 595 100 84 199 166 218
182 19 16 202 168 405 337 204 169 378 317 389 328 32 36 56 99 56 151 0 155
-150 264 -300 219z"/>
</g>
</svg>
