<svg width="463" height="361" viewBox="0 0 463 361" fill="none" xmlns="http://www.w3.org/2000/svg">
<path d="M434 0L423 12L458 11V0H434ZM327 11C334.754 12.8462 343.074 11.9223 351 12.0038C369.895 12.1982 398.588 18.4748 411 1L365 0.195999L339 0.594101L327 11ZM280 2L279 3V10L280 11C291.509 11 307.993 14.514 314 2L313 1L280 2ZM53 13C67.518 13 98.732 18.573 106 3C90.025 3 62.4799 -3.9806 53 13ZM2 4V13C16.1337 13 28.9141 15.8971 38 3L2 4ZM262 5C245.127 11.1178 225.236 31.9978 219 49H218C215.442 42.8355 211.144 35.0522 205 32L206 30C197.025 22.7903 183.126 4.8286 170 8V10C185.519 19.559 197.708 36.0249 204.116 53C207.507 61.984 211.984 82.704 220 88C224.361 67.138 235.109 45.6104 246.87 28C249.761 23.6718 263.118 9.2572 262 5ZM105 21C102.75 52.851 103.012 85.051 103 117C102.994 133.514 103.579 148.33 85 154V156L86 157H195L196 156L195.159 84.985L193.312 62L179 36H178C178 66.145 177.832 97.039 174.285 127C172.896 138.738 171.74 155.513 155 153C156.56 146.447 157.579 134.981 154 129C148.826 145.215 138.436 149.008 122 146L121 48V8L105 21ZM320 16C315.793 21.8013 306.127 26.8428 304.473 34.0038C302.535 42.3957 305.321 54.392 305.91 63C307.069 79.923 306.506 97.134 306.05 114.09C305.851 121.49 308.09 132.296 304.57 139C296.237 154.87 269.193 161.424 262.394 140C258.814 128.717 261.08 114.858 260.809 103.17C260.286 80.668 257.779 57.47 259 35C245.272 45.1934 242 64.243 242 80C242 105.74 242.142 131.255 242 157H359L358 128H357C355.321 149.249 340.95 147 324 147V100C324 91.449 322.97 82.722 327.36 75C331.202 68.242 337.092 62.394 344 58.82C348.395 56.546 355.239 56.025 357 51C344.178 49.9881 334.629 50.8954 324 59C324 48.4779 327.818 23.6561 320 16ZM44 20L29 35C28.9819 62.327 28.581 89.69 27.5941 117C27.2975 125.209 30.8788 137.677 26.1065 144.957C20.931 152.851 8.5409 153.633 0 154L1 157L23.2855 156.68L79 157L80 156L79 130H78C76.854 133.874 77.516 138.329 75.682 141.985C70.55 152.215 56.1905 148.464 47 149C47 134.346 47.265 119.664 46.9753 105.015C46.8145 96.881 45.351 87.38 49.5332 80C53.0802 73.741 59.816 66.896 66 63.225C70.851 60.344 78.008 60.97 80 55C66.7019 54.438 57.1915 57.721 46 65V34L44 20ZM413 22L398 36L397 146L378 156V157H436L435 154C415.999 151.152 417.072 136.257 416.999 121C416.842 88.025 416.415 54.948 415 22H413ZM441 203L431 214L462 215L463 214L462 204L441 203ZM377 203L375 212L378 214L407.996 213.411L420 204C408.774 199.29 389.219 203 377 203ZM162 207L158 211L159 215C172.445 219.937 183.32 219.322 192 207H162ZM52 211V215C62.1339 217.419 76.782 218.958 82 208C72.14 208 60.8514 206.131 52 211ZM100 216V217C104.837 217.013 114.851 215.424 118.686 218.603C122.873 222.075 120.874 228.695 119.405 233C114.859 246.328 107.649 251.964 94 252L93 224C83.158 231.153 74.197 239.05 77 252C72.326 252.181 64.3115 251.494 60.5725 254.742C56.5626 258.226 58.2506 264.031 60.9043 267.715C68.0397 277.619 76.415 287.343 85 296C97.64 289.531 108.01 275.387 116 264H117L129 276L132 277C132.279 283.391 134.709 289.555 134.402 296C133.837 307.832 127.511 317.478 123 328L121 327L120 328L115 335L111 337L108 336L95 343L92 342L94 301L93 300H91L84 305L75 297L74 349L58 352L56 356L110 354C118.827 348.206 129.498 347.015 137.545 339.392C156.208 321.711 164.338 288.788 149.275 266.286C144.815 259.623 137.642 256.029 131 252H126C132.399 246.881 142.246 228.739 139 219C137.66 214.981 132.714 210.144 133 209C118.966 207.226 111.457 207.847 100 216ZM203 217V218C210.817 218.617 224.275 216.686 230.981 220.858C246.812 230.707 222.882 251.309 217 259L198 257L196 225H195L181 238V256H165C161.491 268.797 180.608 289.383 188 299H189L213 284C215.205 299.388 229.178 315.688 235.499 330C237.88 335.391 242.613 341.831 240.257 347.996C238.433 352.77 233.711 354.177 230 357H209V360H309C308.949 335.582 311.674 309.014 289 293C289 309.055 289.044 324.991 288.039 341C287.675 346.805 285.246 355.409 278.015 355.878C271.971 356.271 266.156 340.493 263.388 336C250.711 315.416 238.658 294.607 226 274C243.516 265.644 269.773 228.363 247.906 211.513C240.632 205.908 224.679 206.994 216.001 208.133C210.37 208.873 207.308 213.882 203 217ZM270 210L269 215C278.791 214.974 288.569 216.706 295 208L270 210ZM312 221C329.073 233.262 339.004 259.713 342 280C334.807 283.913 328.577 294.809 325 302C320.582 294.665 312.507 287.956 309.574 280C303.816 264.379 308 241.496 308 225L288 244V271L269 270V272L270 273C290.022 274.746 301.933 291.344 311.823 307C316.194 313.92 317.854 326.576 327 328L339 299L354.015 281.285L374 268H378L377 265C369.62 264.088 363.655 265.642 357 269C352.274 246.874 339.415 227.56 325 211C319.386 211.866 314.537 215.988 312 221ZM425 219L408 235L407.003 305.004L405.007 343L397 356L385 358L363 285C350.495 290.848 345.729 308.341 355 319C354.717 328.158 361.382 337.057 360.693 346C359.663 359.36 339.273 358 330 358V361L462 360L460 326H459C458.939 348.057 444.984 348.471 427 348L426.799 299.17L427.578 280.025L445 263L447 264L457 260L456 256C445.161 256 435.629 257.928 427 265L425 219Z" fill="black"/>
<path d="M95 260L94 272L102 261L95 260ZM69 261L77 272V262L69 261ZM175 264L180 273H181V265L180 264H175ZM198 266V272L202 269L204 270L206 267L198 266Z" fill="black"/>
<path d="M181 299C181 312.237 185.188 341.921 174.867 351.775C169.868 356.548 163.145 356.167 157 358V359C169.426 359.981 185.924 362.57 198 359C194.258 343.281 195.268 317.675 199 302L187 308L181 299Z" fill="black"/>
</svg>
