<svg width="61" height="18" viewBox="0 0 61 18" fill="none" xmlns="http://www.w3.org/2000/svg">
          <path d="M7.84005 8.06609C8.95043 8.06609 9.82683 7.84402 10.4693 7.39987C11.1196 6.95572 11.4448 6.15466 11.4448 4.9967C11.4448 3.75149 10.9927 2.90284 10.0886 2.45076C9.60476 2.21282 8.95836 2.09385 8.14937 2.09385H2.36748V8.06609H7.84005ZM0 0.0594845H8.08989C9.42234 0.0594845 10.5208 0.2538 11.3853 0.642432C13.0271 1.38797 13.848 2.76404 13.848 4.77065C13.848 5.81758 13.6299 6.67416 13.1937 7.34038C12.7654 8.00661 12.1626 8.54197 11.3853 8.94646C12.0674 9.22406 12.579 9.5889 12.92 10.041C13.269 10.4931 13.4633 11.2267 13.503 12.2419L13.5863 14.5856C13.61 15.2518 13.6656 15.7475 13.7528 16.0727C13.8956 16.6279 14.1494 16.9848 14.5142 17.1434V17.536H11.6114C11.5321 17.3853 11.4686 17.191 11.421 16.9531C11.3734 16.7151 11.3338 16.2551 11.302 15.573L11.1593 12.6583C11.1038 11.5162 10.6794 10.7508 9.88632 10.3622C9.43424 10.1481 8.72439 10.041 7.75677 10.041H2.36748V17.536H0V0.0594845Z" fill="black"></path>
          <path d="M18.6781 14.1454C18.6781 14.764 18.9042 15.2518 19.3562 15.6087C19.8083 15.9656 20.3437 16.1441 20.9623 16.1441C21.7158 16.1441 22.4455 15.9696 23.1514 15.6206C24.341 15.0416 24.9359 14.0939 24.9359 12.7773V11.0522C24.6742 11.2188 24.3371 11.3576 23.9247 11.4686C23.5122 11.5796 23.1077 11.659 22.7112 11.7065L21.4144 11.8731C20.6371 11.9762 20.0542 12.1388 19.6656 12.3609C19.0073 12.7336 18.6781 13.3285 18.6781 14.1454ZM23.8652 9.81494C24.3569 9.75149 24.6861 9.54527 24.8526 9.1963C24.9478 9.00595 24.9954 8.73232 24.9954 8.37541C24.9954 7.64574 24.7336 7.11831 24.2102 6.79313C23.6946 6.46001 22.9531 6.29346 21.9855 6.29346C20.8672 6.29346 20.074 6.59484 19.6061 7.19762C19.3443 7.53073 19.1738 8.02644 19.0945 8.68473H17.0958C17.1355 7.11434 17.6431 6.02379 18.6186 5.41309C19.6021 4.79445 20.7403 4.48513 22.033 4.48513C23.5321 4.48513 24.7495 4.77065 25.6854 5.34171C26.6134 5.91276 27.0773 6.80106 27.0773 8.00661V15.347C27.0773 15.5691 27.121 15.7475 27.2082 15.8824C27.3034 16.0172 27.4977 16.0846 27.7911 16.0846C27.8863 16.0846 27.9934 16.0806 28.1124 16.0727C28.2313 16.0568 28.3582 16.037 28.4931 16.0132V17.5955C28.1599 17.6907 27.9061 17.7502 27.7317 17.774C27.5572 17.7978 27.3192 17.8096 27.0178 17.8096C26.2802 17.8096 25.7449 17.5479 25.4118 17.0245C25.2373 16.7469 25.1143 16.3543 25.043 15.8467C24.6067 16.4177 23.9802 16.9134 23.1633 17.3338C22.3463 17.7541 21.4461 17.9643 20.4627 17.9643C19.2809 17.9643 18.3133 17.6074 17.5598 16.8936C16.8143 16.1718 16.4415 15.2716 16.4415 14.193C16.4415 13.0112 16.8103 12.0952 17.5479 11.4448C18.2855 10.7944 19.2531 10.3939 20.4508 10.2432L23.8652 9.81494Z" fill="black"></path>
          <path d="M31.9551 11.3139C31.9551 12.6781 32.2445 13.8202 32.8235 14.7403C33.4025 15.6603 34.3305 16.1203 35.6074 16.1203C36.5988 16.1203 37.4118 15.696 38.0463 14.8473C38.6887 13.9907 39.0099 12.7654 39.0099 11.1712C39.0099 9.56114 38.6808 8.37145 38.0225 7.60211C37.3642 6.82485 36.5512 6.43622 35.5836 6.43622C34.505 6.43622 33.6286 6.84864 32.9544 7.6735C32.2882 8.49835 31.9551 9.71183 31.9551 11.3139ZM35.1791 4.56841C36.1547 4.56841 36.9716 4.77462 37.6299 5.18705C38.0106 5.42498 38.4428 5.84137 38.9266 6.43622V0H40.9848V17.536H39.0575V15.7634C38.5578 16.5486 37.967 17.1157 37.2849 17.4646C36.6028 17.8136 35.8215 17.9881 34.9412 17.9881C33.5215 17.9881 32.2921 17.3933 31.2531 16.2036C30.2141 15.0059 29.6946 13.4157 29.6946 11.4329C29.6946 9.577 30.1666 7.97092 31.1104 6.61467C32.0621 5.2505 33.4184 4.56841 35.1791 4.56841Z" fill="black"></path>
          <path d="M44.1613 4.85393H46.3384V17.536H44.1613V4.85393ZM44.1613 0.0594845H46.3384V2.48645H44.1613V0.0594845Z" fill="black"></path>
          <path d="M54.6424 16.156C56.0621 16.156 57.0337 15.6206 57.5572 14.5499C58.0886 13.4712 58.3543 12.2736 58.3543 10.957C58.3543 9.76735 58.1639 8.79974 57.7832 8.0542C57.1804 6.88037 56.1414 6.29346 54.6662 6.29346C53.3576 6.29346 52.4058 6.79313 51.811 7.79247C51.2161 8.7918 50.9187 9.99736 50.9187 11.4091C50.9187 12.7654 51.2161 13.8956 51.811 14.7997C52.4058 15.7039 53.3496 16.156 54.6424 16.156ZM54.7257 4.42564C56.3675 4.42564 57.7555 4.9729 58.8896 6.06742C60.0238 7.16193 60.5909 8.77198 60.5909 10.8976C60.5909 12.9518 60.0912 14.649 59.0919 15.9894C58.0925 17.3298 56.542 18 54.4402 18C52.6874 18 51.2954 17.4091 50.2644 16.2274C49.2333 15.0377 48.7178 13.4435 48.7178 11.4448C48.7178 9.30337 49.2611 7.59815 50.3477 6.32915C51.4342 5.06015 52.8936 4.42564 54.7257 4.42564Z" fill="black"></path>
          </svg>