<svg width="782" height="782" viewBox="0 0 782 782" fill="none" xmlns="http://www.w3.org/2000/svg">
<rect x="83" y="83" width="616" height="616" rx="116" fill="#C3DEEB"/>
<path d="M207.201 406.856L234.688 445.903H212.14L187.015 409.708H163.823V445.903H146V338.632H185.083C200.973 338.632 212.355 341.411 219.226 346.968C226.241 352.379 229.749 361.227 229.749 373.512C229.749 391.208 222.233 402.322 207.201 406.856ZM185.727 393.474C195.605 393.474 202.405 391.939 206.127 388.868C209.849 385.796 211.71 380.605 211.71 373.292C211.71 366.273 209.849 361.52 206.127 359.034C202.405 356.401 195.748 355.085 186.156 355.085H163.823V393.474H185.727Z" fill="#37C0A0"/>
<path d="M270.255 421.553L259.732 445.903H240.835L287.219 338.632H306.116L352.285 445.903H333.388L322.866 421.553H270.255ZM315.78 404.662L296.668 360.569L277.556 404.662H315.78Z" fill="#37C0A0"/>
<path d="M402.986 338.632C421.74 338.632 436.199 343.312 446.363 352.672C456.528 361.885 461.61 374.901 461.61 391.719C461.61 408.83 456.599 422.138 446.578 431.644C436.557 441.15 421.597 445.903 401.697 445.903H366.909V338.632H402.986ZM402.342 355.304H384.733V428.792H404.274C417.159 428.792 426.965 425.721 433.694 419.579C440.422 413.291 443.786 404.15 443.786 392.158C443.786 367.589 429.971 355.304 402.342 355.304Z" fill="#37C0A0"/>
<path d="M484.28 338.632H502.104V445.903H484.28V338.632Z" fill="#37C0A0"/>
<path d="M579.597 352.453C569.146 352.453 560.342 356.255 553.184 363.86C546.026 371.464 542.447 380.678 542.447 391.5C542.447 402.322 546.026 411.536 553.184 419.14C560.342 426.599 569.146 430.328 579.597 430.328C590.048 430.328 598.852 426.599 606.01 419.14C613.168 411.536 616.747 402.322 616.747 391.5C616.747 380.678 613.168 371.464 606.01 363.86C598.852 356.255 590.048 352.453 579.597 352.453ZM579.597 447C563.849 447 550.679 441.735 540.085 431.206C529.491 420.53 524.194 407.294 524.194 391.5C524.194 375.706 529.491 362.543 540.085 352.014C550.679 341.338 563.849 336 579.597 336C595.345 336 608.515 341.338 619.109 352.014C629.703 362.543 635 375.706 635 391.5C635 407.294 629.631 420.457 618.894 430.986C608.157 441.662 595.058 447 579.597 447Z" fill="#37C0A0"/>
</svg>
