<svg width="145" height="121" viewBox="0 0 145 121" fill="none" xmlns="http://www.w3.org/2000/svg">
<path d="M77.1534 72.2211L80.0324 39.3167C80.2244 37.1316 78.6067 35.204 76.4215 35.012L18.1207 29.9119C15.9356 29.72 14.0079 31.3377 13.816 33.5228L10.937 66.4272C10.745 68.6124 12.3628 70.54 14.5479 70.732L72.8487 75.832C75.037 76.024 76.9615 74.4063 77.1534 72.2211ZM20.7856 63.1643C20.7382 63.7022 20.2868 64.1092 19.7585 64.1092C19.7289 64.1092 19.6962 64.1093 19.6667 64.1061C19.0972 64.0555 18.6775 63.5535 18.7281 62.9872L20.89 38.2687C20.9406 37.6992 21.4447 37.2763 22.0089 37.3301C22.5784 37.3807 22.9981 37.8827 22.9475 38.449L20.7856 63.1643ZM33.1086 64.2421C33.0611 64.78 32.6097 65.187 32.0814 65.187C32.0519 65.187 32.0192 65.187 31.9897 65.1839C31.4202 65.1332 31.0004 64.6313 31.0511 64.065L33.213 39.3464C33.2636 38.777 33.7656 38.3541 34.3319 38.4079C34.9014 38.4585 35.3211 38.9605 35.2705 39.5268L33.1086 64.2421ZM45.4334 65.3199C45.386 65.8578 44.9346 66.2648 44.4062 66.2648C44.3767 66.2648 44.344 66.2648 44.3145 66.2617C43.745 66.211 43.3253 65.7091 43.3759 65.1428L45.5378 40.4242C45.5884 39.8547 46.0904 39.4287 46.6567 39.4856C47.2262 39.5363 47.6459 40.0382 47.5953 40.6045L45.4334 65.3199ZM57.7553 66.4009C57.7078 66.9387 57.2565 67.3458 56.7281 67.3458C56.6986 67.3458 56.6659 67.3458 56.6364 67.3426C56.0669 67.292 55.6472 66.79 55.6978 66.2237L57.8597 41.5052C57.9103 40.9357 58.4144 40.5097 58.9786 40.5666C59.5481 40.6172 59.9678 41.1192 59.9172 41.6855L57.7553 66.4009ZM70.0801 67.4787C70.0327 68.0165 69.5813 68.4236 69.053 68.4236C69.0234 68.4236 68.9907 68.4236 68.9612 68.4204C68.3917 68.3698 67.972 67.8678 68.0226 67.3015L70.1845 42.583C70.2351 42.0135 70.7371 41.5874 71.3034 41.6444C71.8729 41.695 72.2926 42.197 72.242 42.7633L70.0801 67.4787Z" fill="black"/>
<path d="M113.57 56.5573C112.324 56.4476 111.226 57.3693 111.116 58.6158C111.007 59.8623 111.928 60.9602 113.175 61.0698C114.421 61.1795 115.519 60.2578 115.629 59.0113C115.734 57.7647 114.814 56.6669 113.57 56.5573Z" fill="black"/>
<path d="M97.01 89.2835C95.7635 89.1738 94.6657 90.0955 94.556 91.3421C94.4463 92.5886 95.368 93.6864 96.6146 93.7961C97.8611 93.9057 98.9589 92.984 99.0686 91.7375C99.1772 90.492 98.2555 89.3932 97.01 89.2835Z" fill="black"/>
<path d="M124.196 91.6619C122.95 91.5523 121.852 92.474 121.742 93.7205C121.633 94.967 122.554 96.0648 123.801 96.1745C125.047 96.2842 126.145 95.3625 126.255 94.1159C126.364 92.8694 125.443 91.7716 124.196 91.6619Z" fill="black"/>
<path d="M29.1224 83.3441C27.8759 83.2344 26.7781 84.1561 26.6684 85.4026C26.5588 86.6491 27.4804 87.747 28.727 87.8566C29.9735 87.9663 31.0713 87.0446 31.181 85.7981C31.2896 84.5515 30.3679 83.4527 29.1224 83.3441Z" fill="black"/>
<path d="M53.8547 87.7797C53.745 89.0263 54.6667 90.1241 55.9133 90.2337C57.1598 90.3434 58.2576 89.4217 58.3673 88.1752C58.4769 86.9287 57.5552 85.8308 56.3087 85.7212C55.0632 85.6157 53.9644 86.5364 53.8547 87.7797Z" fill="black"/>
<path d="M97.4285 84.486C95.545 84.3204 93.708 84.8994 92.2609 86.1164C90.8108 87.3334 89.9218 89.0397 89.7594 90.9233C89.5939 92.8068 90.1728 94.6408 91.3898 96.0909C92.6068 97.5409 94.3131 98.4299 96.1967 98.5923C96.4066 98.6103 96.6164 98.6187 96.8252 98.6187C98.4851 98.6187 100.077 98.0397 101.364 96.962C102.814 95.745 103.703 94.0387 103.866 92.1551C104.031 90.2716 103.452 88.4375 102.235 86.9875C101.019 85.5374 99.3129 84.6484 97.4282 84.486L97.4285 84.486ZM101.808 91.9745C101.69 93.3097 101.062 94.5172 100.037 95.3768C99.0115 96.2362 97.7122 96.6465 96.3781 96.5315C95.043 96.4134 93.8355 95.7849 92.9759 94.7598C92.1163 93.7348 91.7062 92.4355 91.8212 91.1014C91.9393 89.7663 92.5678 88.5588 93.5929 87.6992C94.5019 86.9346 95.6303 86.5265 96.805 86.5265C96.9527 86.5265 97.1003 86.5328 97.2511 86.5476C98.5862 86.6657 99.7937 87.2942 100.653 88.3193C101.513 89.3401 101.923 90.6394 101.808 91.9745L101.808 91.9745Z" fill="black"/>
<path d="M115.544 34.0009C101.866 32.805 89.7569 42.9598 88.5612 56.6428C87.9822 63.2688 90.0165 69.7271 94.2927 74.8239C98.568 79.9208 104.575 83.0476 111.201 83.6264C111.936 83.6918 112.666 83.7235 113.389 83.7235C126.152 83.7235 137.05 73.9315 138.185 60.9866C139.383 47.3032 129.225 35.1968 115.544 34.0008L115.544 34.0009ZM136.125 60.8031C135.085 72.6766 125.09 81.6565 113.388 81.6532C112.724 81.6532 112.053 81.6237 111.38 81.5646C105.303 81.0331 99.7966 78.1657 95.8744 73.4919C91.9535 68.8181 90.0867 62.8976 90.6183 56.8199C91.1498 50.7433 94.0172 45.2364 98.691 41.3142C102.843 37.83 107.978 35.9696 113.334 35.9696C114.007 35.9696 114.686 35.9991 115.363 36.0582C121.439 36.5897 126.946 39.4571 130.869 44.1309C134.79 48.8058 136.656 54.7263 136.125 60.8029L136.125 60.8031Z" fill="black"/>
<path d="M118.454 63.2634C119.399 62.1888 119.981 60.8537 120.108 59.4036C120.264 57.6055 119.712 55.8518 118.551 54.4661C117.391 53.0814 115.761 52.2335 113.959 52.0774C112.471 51.9445 111.054 52.3105 109.867 53.0307L102.883 44.7102C102.517 44.2736 101.864 44.2166 101.428 44.5836C100.991 44.9496 100.934 45.6023 101.301 46.0389L108.285 54.3595C107.369 55.4046 106.764 56.7366 106.634 58.2245C106.478 60.0225 107.03 61.7762 108.191 63.162C109.351 64.5467 110.981 65.3946 112.783 65.5507C112.983 65.5686 113.184 65.577 113.385 65.577C114.625 65.577 115.824 65.2343 116.875 64.5963L123.859 72.9201C124.062 73.1648 124.355 73.2892 124.65 73.2892C124.883 73.2892 125.119 73.2091 125.314 73.0466C125.751 72.6807 125.808 72.0279 125.441 71.5913L118.454 63.2634ZM118.049 59.2233C117.939 60.4719 117.349 61.6066 116.389 62.4092C115.429 63.2149 114.212 63.5988 112.961 63.4902C111.712 63.3805 110.577 62.7899 109.772 61.8303C108.966 60.8706 108.582 59.6515 108.691 58.4019C108.801 57.1532 109.391 56.0185 110.351 55.2129C111.204 54.4979 112.262 54.1141 113.36 54.1141C113.499 54.1141 113.637 54.1204 113.776 54.132C115.025 54.2417 116.16 54.8323 116.965 55.7919C117.772 56.7526 118.159 57.9717 118.049 59.2235L118.049 59.2233Z" fill="black"/>
<path d="M124.615 86.8645C122.731 86.6957 120.897 87.2779 119.447 88.4949C117.997 89.7119 117.108 91.4182 116.946 93.3018C116.78 95.1853 117.359 97.0223 118.576 98.4693C119.793 99.9194 121.499 100.805 123.383 100.971C123.593 100.989 123.8 100.997 124.006 100.997C127.632 100.997 130.732 98.2151 131.055 94.5337C131.221 92.6502 130.642 90.8132 129.425 89.3662C128.206 87.9193 126.498 87.0303 124.615 86.8647V86.8645ZM128.99 94.353C128.748 97.1076 126.315 99.1483 123.56 98.9088C120.806 98.6663 118.762 96.2302 119.004 93.4788C119.123 92.1437 119.751 90.9362 120.776 90.0766C121.685 89.3121 122.814 88.9039 123.988 88.9039C124.136 88.9039 124.284 88.9102 124.434 88.925C125.77 89.0431 126.977 89.6716 127.837 90.6967C128.698 91.7218 129.108 93.021 128.99 94.353L128.99 94.353Z" fill="black"/>
<path d="M29.5409 78.5467C25.6546 78.2039 22.2116 81.0924 21.872 84.9807C21.5324 88.8699 24.4178 92.3099 28.306 92.6495C28.5159 92.6675 28.7226 92.6759 28.9293 92.6759C32.555 92.6759 35.6554 89.8938 35.978 86.2125C36.1436 84.329 35.5646 82.4949 34.3476 81.0449C33.1317 79.5948 31.4254 78.7111 29.5407 78.5466L29.5409 78.5467ZM33.9174 86.0373C33.6749 88.7897 31.2367 90.8294 28.4874 90.5931C25.7329 90.3506 23.6892 87.9145 23.9316 85.1632C24.1594 82.5562 26.353 80.5863 28.9218 80.5863C29.0663 80.5863 29.2139 80.5926 29.3616 80.6042C30.6967 80.7223 31.9042 81.3509 32.7638 82.3759C33.6254 83.4042 34.0356 84.7034 33.9175 86.0373L33.9174 86.0373Z" fill="black"/>
<path d="M51.5626 82.5531C50.1126 83.77 49.2236 85.4763 49.0612 87.3599C48.8956 89.2434 49.4746 91.0775 50.6916 92.5275C51.9086 93.9776 53.6148 94.8666 55.4984 95.029C55.7083 95.0469 55.915 95.0553 56.1217 95.0553C59.7475 95.0553 62.8478 92.2733 63.1705 88.5919C63.51 84.7027 60.6247 81.2627 56.7364 80.923C54.8435 80.7617 53.0095 81.3396 51.5627 82.5534L51.5626 82.5531ZM61.1057 88.4145C60.8631 91.169 58.4334 93.2065 55.6757 92.9703C54.3406 92.8522 53.1331 92.2236 52.2735 91.1986C51.414 90.1735 51.0038 88.8743 51.1187 87.5401C51.2368 86.205 51.8654 84.9975 52.8904 84.1379C53.7995 83.3734 54.9279 82.9652 56.1026 82.9652C56.2502 82.9652 56.3979 82.9716 56.5486 82.9863C59.3021 83.2268 61.348 85.6629 61.1055 88.4141L61.1057 88.4145Z" fill="black"/>
<path d="M3.23544 74.1784C3.26497 74.1816 3.29766 74.1816 3.32719 74.1816C3.85553 74.1816 4.30795 73.7766 4.35436 73.2367L8.77518 22.7246C8.84267 21.9421 9.21178 21.2334 9.81501 20.7283C10.4172 20.2231 11.1796 19.9837 11.9621 20.0523L98.648 27.6348C99.2154 27.6875 99.7173 27.2657 99.7669 26.6962C99.8175 26.1288 99.3946 25.6268 98.8283 25.5773L42.2202 20.6249H121.377V20.8527C121.377 22.0486 122.348 23.0198 123.544 23.0198H131.18C132.376 23.0198 133.347 22.0485 133.347 20.8527L133.345 18.3312C133.345 17.1353 132.374 16.164 131.178 16.164H123.542C122.346 16.164 121.374 17.1353 121.374 18.3312V18.559H20.3313C20.1658 18.559 20.0129 18.6001 19.8737 18.6707L12.1373 17.9948C9.38275 17.7554 6.95515 19.796 6.71244 22.5452L2.29594 73.0599C2.24532 73.6273 2.66716 74.1293 3.23453 74.1789L3.23544 74.1784ZM123.436 18.3317C123.436 18.2758 123.48 18.2315 123.536 18.2315H131.172C131.228 18.2315 131.272 18.2758 131.272 18.3317V20.8532C131.272 20.909 131.228 20.9533 131.172 20.9533H123.536C123.48 20.9533 123.436 20.909 123.436 20.8532V18.3317Z" fill="black"/>
<path d="M139.914 29.1738L106.653 26.2654C106.089 26.2126 105.584 26.6345 105.535 27.204C105.484 27.7735 105.907 28.2733 106.473 28.3229L139.734 31.2313C140.516 31.2988 141.225 31.6679 141.73 32.2711C142.235 32.8733 142.475 33.6358 142.406 34.4183L136.391 103.17C136.323 103.952 135.954 104.661 135.351 105.166C134.749 105.671 133.986 105.911 133.204 105.842L5.43352 94.6625C4.65102 94.595 3.94234 94.2259 3.43719 93.6226C2.93205 93.0205 2.69266 92.258 2.76121 91.4755L3.73565 80.3286C3.78627 79.7591 3.36338 79.2592 2.79706 79.2097C2.22968 79.1569 1.72772 79.5819 1.67815 80.1483L0.70371 91.2952C0.58876 92.6271 0.99582 93.9264 1.85531 94.9504C2.7148 95.9754 3.92228 96.604 5.25428 96.7189L13.2269 97.416L14.621 104.618C14.8752 105.935 15.9857 106.936 17.3229 107.054L20.9168 107.367C21.0023 107.376 21.0908 107.379 21.1763 107.379C22.4133 107.379 23.5501 106.608 23.9994 105.438L25.1837 102.35C25.3872 101.818 25.1215 101.219 24.5868 101.014C24.0553 100.811 23.4563 101.077 23.2517 101.611L22.0674 104.7C21.9166 105.096 21.5211 105.343 21.0929 105.309L17.4991 104.995C17.0772 104.959 16.725 104.641 16.6459 104.228L15.3646 97.6049L122.914 107.016L120.501 113.314C120.35 113.709 119.955 113.96 119.527 113.922L115.933 113.609C115.511 113.573 115.159 113.255 115.08 112.841L114.451 109.593C114.341 109.032 113.798 108.669 113.24 108.775C112.679 108.885 112.313 109.425 112.422 109.986L113.051 113.234C113.305 114.551 114.415 115.552 115.752 115.67L119.346 115.983C119.432 115.991 119.52 115.995 119.606 115.995C120.843 115.995 121.98 115.224 122.429 114.054L125.051 107.204L133.023 107.901C133.171 107.912 133.319 107.922 133.463 107.922C136.029 107.922 138.22 105.952 138.447 103.351L144.462 34.5995C144.708 31.8461 142.667 29.412 139.916 29.1736L139.914 29.1738Z" fill="black"/>
<path d="M67.7422 9.09804C67.9162 9.47557 68.2916 9.69705 68.6808 9.69705C68.8252 9.69705 68.9729 9.66752 69.1153 9.60214C69.632 9.36275 69.8598 8.74897 69.6204 8.22908L66.3934 1.25188C66.154 0.735122 65.5402 0.507345 65.0203 0.74673C64.5036 0.986121 64.2758 1.5999 64.5152 2.11979L67.7422 9.09804Z" fill="black"/>
<path d="M91.5863 10.628C91.7402 10.7081 91.9026 10.7461 92.065 10.7461C92.4373 10.7461 92.7969 10.5457 92.9804 10.1914L96.547 3.37885C96.8128 2.87371 96.6177 2.24834 96.1104 1.98468C95.6053 1.71893 94.9799 1.91403 94.7162 2.42129L91.1496 9.2338C90.886 9.73895 91.0811 10.3622 91.5862 10.628H91.5863Z" fill="black"/>
<path d="M87.3018 121C86.8884 121 86.496 120.749 86.3389 120.339L83.5633 113.17C83.3566 112.638 83.6224 112.039 84.1539 111.832C84.6854 111.626 85.2844 111.891 85.4911 112.423L88.2667 119.592C88.4734 120.124 88.2076 120.723 87.6761 120.929C87.5527 120.977 87.4262 121 87.3018 121V121Z" fill="black"/>
<path d="M57.2618 117.86C57.0783 117.86 56.8927 117.81 56.7239 117.709C56.2367 117.414 56.0807 116.776 56.3781 116.289L60.3729 109.719C60.6682 109.232 61.3062 109.078 61.7934 109.373C62.2806 109.668 62.4367 110.306 62.1393 110.793L58.1445 117.363C57.9525 117.683 57.6098 117.86 57.2618 117.86V117.86Z" fill="black"/>
</svg>
