<svg width="512" height="512" viewBox="0 0 512 512" fill="none" xmlns="http://www.w3.org/2000/svg">
<rect width="512" height="512" rx="116" fill="#EBDDC3"/>
<path d="M244.065 300.522C244.155 301.421 244.065 302.275 243.795 303.084C243.616 303.623 243.346 304.072 242.987 304.432C242.717 304.791 242.358 305.151 241.909 305.51C241.101 306.049 240.113 306.544 238.945 306.993C238.227 307.173 237.508 307.308 236.789 307.398C236.161 307.577 235.487 307.577 234.769 307.398C233.331 307.308 232.074 306.769 230.996 305.78C229.469 304.522 228.212 303.128 227.224 301.601C226.775 300.882 226.281 300.073 225.742 299.174C225.203 298.275 224.709 297.331 224.26 296.343L209.305 267.897C208.587 267.897 207.868 267.942 207.149 268.032C206.431 268.032 205.712 268.076 204.994 268.166C203.108 268.346 201.311 268.391 199.605 268.301C197.988 268.211 196.281 268.211 194.485 268.301H191.925V292.703C191.925 293.422 191.88 294.096 191.791 294.725C191.791 295.354 191.791 296.028 191.791 296.747C191.791 297.197 191.746 297.781 191.656 298.5C191.656 299.219 191.611 299.893 191.521 300.522C191.341 301.511 190.937 302.544 190.309 303.623C189.68 304.611 188.827 305.465 187.749 306.184C185.863 307.353 183.572 307.667 180.878 307.128C179.71 306.858 178.587 306.409 177.509 305.78C177.15 305.51 176.836 305.196 176.566 304.836C176.297 304.387 176.072 303.937 175.893 303.488C175.713 303.039 175.533 302.589 175.354 302.14C175.264 301.601 175.129 301.106 174.95 300.657C174.68 299.758 174.545 298.904 174.545 298.095V221.52C174.545 220.981 174.545 220.442 174.545 219.902C174.635 219.273 174.725 218.734 174.815 218.285C174.905 217.296 175.219 216.307 175.758 215.319C176.027 214.24 176.477 213.476 177.105 213.027C177.644 212.488 178.453 212.038 179.53 211.679C180.698 211.229 182.36 211.049 184.515 211.139C188.557 211.229 192.554 211.274 196.506 211.274C200.458 211.274 204.41 211.364 208.362 211.544C210.967 211.724 213.706 212.038 216.58 212.488C219.544 212.847 222.284 213.521 224.799 214.51C226.415 215.139 227.897 215.768 229.245 216.397C230.951 217.386 232.299 218.33 233.287 219.228C236.43 222.104 238.81 225.565 240.427 229.609C242.044 233.654 242.852 237.743 242.852 241.877C242.852 246.731 241.685 251.18 239.349 255.224C237.104 259.268 233.466 262.279 228.436 264.257C228.257 264.436 227.987 264.571 227.628 264.661C227.359 264.661 227.134 264.706 226.954 264.796L239.349 289.737L240.562 291.894C240.741 292.253 240.966 292.658 241.235 293.107C241.505 293.557 241.729 294.006 241.909 294.455C242.179 294.905 242.403 295.399 242.583 295.938C242.852 296.478 243.122 296.972 243.391 297.421C243.661 298.68 243.885 299.713 244.065 300.522ZM210.383 252.528C212 252.528 213.527 252.258 214.964 251.719C216.491 251.09 217.838 250.281 219.005 249.292C220.263 248.303 221.296 247.18 222.104 245.922C222.913 244.574 223.362 243.136 223.451 241.608C223.811 237.114 222.643 233.788 219.949 231.631C217.254 229.384 213.706 228.171 209.305 227.991C206.7 227.812 203.826 227.722 200.683 227.722C197.629 227.722 194.71 227.722 191.925 227.722C192.015 231.407 192.015 235.181 191.925 239.046C191.925 242.821 191.925 247.315 191.925 252.528H210.383Z" fill="black"/>
<path d="M266.356 249.697C269.05 248.348 271.88 247.405 274.844 246.865C277.808 246.236 280.727 246.102 283.601 246.461C286.565 246.731 289.394 247.495 292.089 248.753C294.783 249.921 297.298 251.629 299.633 253.876C301.969 256.213 303.765 258.774 305.022 261.56C306.28 264.347 307.178 267.447 307.717 270.863C308.076 273.199 308.66 275.356 309.468 277.334C310.277 279.311 311.13 281.288 312.028 283.266C313.016 285.243 313.914 287.22 314.723 289.198C315.621 291.175 316.34 293.242 316.878 295.399C317.328 297.466 317.148 299.488 316.34 301.466C315.621 303.353 314.094 304.522 311.759 304.971C310.412 305.241 309.109 305.151 307.852 304.701C306.684 304.162 305.606 303.443 304.618 302.544C303.63 301.556 302.732 300.522 301.924 299.444C301.205 298.275 300.532 297.197 299.903 296.208C297.837 298.904 295.592 301.016 293.166 302.544C290.741 303.982 287.822 304.926 284.409 305.375C281.535 305.735 278.796 305.825 276.191 305.645C273.586 305.465 270.802 304.971 267.838 304.162C263.976 303.173 260.787 301.466 258.272 299.039C255.847 296.523 253.961 293.646 252.614 290.411C251.356 287.085 250.682 283.535 250.593 279.76C250.503 275.986 250.952 272.256 251.94 268.571C253.197 263.717 255.084 259.763 257.598 256.707C260.113 253.651 263.032 251.314 266.356 249.697ZM269.724 265.47C268.466 266.728 267.478 268.211 266.76 269.919C266.041 271.627 265.592 273.424 265.413 275.312C265.323 277.199 265.502 279.086 265.952 280.974C266.401 282.861 267.119 284.524 268.107 285.962C269.005 287.22 270.532 288.299 272.688 289.198C274.844 290.006 277.089 290.501 279.424 290.681C282.119 290.86 284.454 290.141 286.43 288.523C288.496 286.906 290.023 284.883 291.011 282.457C292.089 279.94 292.583 277.289 292.493 274.503C292.403 271.627 291.64 269.02 290.202 266.683C289.125 264.976 287.688 263.717 285.891 262.909C284.185 262.1 282.343 261.695 280.367 261.695C278.391 261.605 276.415 261.92 274.439 262.639C272.553 263.268 270.981 264.212 269.724 265.47Z" fill="black"/>
<path d="M370.122 212.218C371.829 211.768 373.311 211.724 374.568 212.083C375.915 212.353 377.038 212.937 377.936 213.836C378.924 214.734 379.643 215.858 380.092 217.206C380.631 218.554 380.9 220.037 380.9 221.655C380.99 226.149 380.99 229.654 380.9 232.171C380.9 234.687 380.9 236.889 380.9 238.777V280.165C380.9 285.018 380.9 289.063 380.9 292.298C380.9 295.534 380.721 298.185 380.361 300.252C380.092 302.23 379.553 303.713 378.745 304.701C378.026 305.69 376.903 306.364 375.376 306.724C373.85 307.173 371.829 307.398 369.314 307.398C366.889 307.398 363.835 307.398 360.152 307.398C350.452 307.398 342.772 305.106 337.114 300.522C331.545 295.938 328.581 288.658 328.222 278.682C328.042 274.368 328.581 270.413 329.839 266.818C331.096 263.223 332.937 260.167 335.362 257.651C337.877 255.044 340.931 253.067 344.524 251.719C348.206 250.281 352.383 249.607 357.054 249.697H364.464V225.565C364.464 224.127 364.464 222.733 364.464 221.385C364.464 219.947 364.598 218.644 364.868 217.476C365.137 216.217 365.676 215.139 366.484 214.24C367.293 213.341 368.505 212.667 370.122 212.218ZM346.68 287.041C348.566 289.647 351.979 291.085 356.919 291.355C357.907 291.444 358.85 291.489 359.748 291.489C360.646 291.4 361.455 291.265 362.173 291.085C362.982 290.995 363.745 290.86 364.464 290.681V265.74C361.32 265.2 358.446 264.886 355.841 264.796C353.326 264.616 350.811 265.515 348.296 267.492C346.949 268.571 345.916 269.964 345.198 271.672C344.479 273.289 344.075 275.042 343.985 276.929C343.895 278.727 344.075 280.524 344.524 282.322C344.973 284.119 345.692 285.692 346.68 287.041Z" fill="black"/>
<path d="M408.742 255.359C408.742 257.875 408.742 260.707 408.742 263.852C408.832 266.998 408.877 270.278 408.877 273.694C408.877 277.019 408.877 280.345 408.877 283.67C408.877 286.906 408.832 289.917 408.742 292.703C408.653 294.051 408.518 295.534 408.338 297.152C408.159 298.68 407.799 300.118 407.26 301.466C406.722 302.814 405.868 303.937 404.701 304.836C403.623 305.645 402.141 306.005 400.255 305.915C397.47 305.735 395.449 304.522 394.192 302.275C393.024 300.028 392.351 296.882 392.171 292.838C392.171 290.77 392.126 288.389 392.036 285.692C392.036 282.996 391.991 280.255 391.902 277.469C391.902 274.682 391.902 271.986 391.902 269.38C391.902 266.683 391.902 264.257 391.902 262.1C391.902 260.841 391.857 259.313 391.767 257.516C391.767 255.718 391.812 253.876 391.902 251.988C391.991 250.101 392.216 248.304 392.575 246.596C392.934 244.798 393.518 243.315 394.327 242.147C394.955 241.428 395.854 240.889 397.021 240.529C398.189 240.08 399.401 239.855 400.659 239.855C402.006 239.855 403.264 240.08 404.431 240.529C405.689 240.979 406.587 241.608 407.126 242.417C407.485 242.956 407.754 243.72 407.934 244.708C408.114 245.697 408.248 246.821 408.338 248.079C408.518 249.247 408.608 250.505 408.608 251.854C408.698 253.112 408.742 254.28 408.742 255.359ZM403.623 228.126C400.838 228.845 398.503 228.575 396.617 227.317C394.821 225.969 393.698 223.992 393.249 221.385C392.89 219.498 393.024 217.835 393.653 216.397C394.282 214.959 395.225 213.881 396.482 213.162C397.74 212.353 399.177 211.993 400.794 212.083C402.41 212.173 404.027 212.802 405.644 213.97C407.171 215.049 408.248 216.307 408.877 217.745C409.596 219.183 409.82 220.576 409.551 221.925C409.371 223.273 408.787 224.531 407.799 225.699C406.811 226.778 405.419 227.587 403.623 228.126Z" fill="black"/>
<path d="M437.96 245.517C440.924 244.079 444.023 243.046 447.257 242.417C450.49 241.787 453.679 241.653 456.822 242.012C460.056 242.372 463.154 243.225 466.118 244.574C469.172 245.922 471.957 247.809 474.471 250.236C476.537 252.303 478.334 254.82 479.861 257.786C481.387 260.662 482.51 263.493 483.229 266.279C484.756 271.222 484.98 276.21 483.902 281.243C482.825 286.277 480.983 290.95 478.379 295.264C477.121 297.242 475.549 299.039 473.663 300.657C471.867 302.185 469.936 303.443 467.87 304.432C465.175 305.69 462.256 306.544 459.113 306.993C455.969 307.532 452.915 307.667 449.951 307.398C444.562 307.128 439.802 305.78 435.67 303.353C431.628 300.927 428.35 297.826 425.835 294.051C423.41 290.276 421.793 286.007 420.985 281.243C420.266 276.39 420.581 271.447 421.928 266.414C423.365 261.021 425.431 256.662 428.125 253.337C430.91 249.921 434.188 247.315 437.96 245.517ZM442.002 263.583C440.655 264.841 439.622 266.414 438.903 268.301C438.185 270.189 437.736 272.166 437.556 274.233C437.377 276.21 437.511 278.233 437.96 280.3C438.499 282.277 439.308 284.075 440.385 285.692C441.284 287.041 442.9 288.164 445.236 289.063C447.571 289.962 449.996 290.501 452.511 290.681C455.385 290.86 457.9 290.096 460.056 288.389C462.211 286.591 463.828 284.389 464.906 281.783C466.073 279.176 466.612 276.345 466.523 273.289C466.433 270.233 465.624 267.447 464.097 264.931C463.02 263.133 461.493 261.83 459.517 261.021C457.631 260.122 455.61 259.673 453.454 259.673C451.388 259.583 449.322 259.898 447.257 260.617C445.191 261.246 443.439 262.234 442.002 263.583Z" fill="black"/>
<rect x="26.5974" y="222.89" width="127.076" height="84.7177" rx="28" fill="black"/>
<circle cx="118.054" cy="272.63" r="16.3659" fill="white"/>
<path d="M49.3813 284.824H82.755M49.3813 272.63H82.755M49.3813 260.115H82.755" stroke="white" stroke-width="9" stroke-linecap="round"/>
<path d="M49.3813 284.824H82.755M49.3813 272.63H82.755M49.3813 260.115H82.755" stroke="white" stroke-width="9" stroke-linecap="round"/>
<path d="M49.3813 284.824H82.755M49.3813 272.63H82.755M49.3813 260.115H82.755" stroke="white" stroke-width="9" stroke-linecap="round"/>
<path d="M49.3813 284.824H82.755M49.3813 272.63H82.755M49.3813 260.115H82.755" stroke="white" stroke-width="9" stroke-linecap="round"/>
<path d="M49.3813 284.824H82.755M49.3813 272.63H82.755M49.3813 260.115H82.755" stroke="white" stroke-width="9" stroke-linecap="round"/>
<line x1="61.261" y1="224.13" x2="120.898" y2="201.063" stroke="black" stroke-width="9" stroke-linecap="round"/>
</svg>
