<svg width="512" height="512" viewBox="0 0 512 512" fill="none" xmlns="http://www.w3.org/2000/svg">
<circle cx="256" cy="256" r="256" fill="black"/>
<path d="M125.546 251.052C131.997 251.052 137.089 249.757 140.821 247.166C144.599 244.575 146.488 239.902 146.488 233.147C146.488 225.884 143.862 220.933 138.609 218.296C135.798 216.908 132.043 216.214 127.343 216.214H93.7538V251.052H125.546ZM80 204.347H126.998C134.739 204.347 141.12 205.481 146.143 207.748C155.68 212.096 160.449 220.124 160.449 231.829C160.449 237.936 159.182 242.933 156.648 246.819C154.16 250.705 150.658 253.828 146.143 256.188C150.105 257.807 153.077 259.935 155.058 262.572C157.086 265.21 158.215 269.489 158.445 275.411L158.929 289.083C159.067 292.969 159.389 295.861 159.896 297.757C160.726 300.996 162.2 303.078 164.32 304.003V306.293H147.456C146.995 305.414 146.626 304.281 146.35 302.893C146.073 301.505 145.843 298.822 145.659 294.843L144.829 277.84C144.507 271.178 142.042 266.713 137.434 264.446C134.808 263.197 130.684 262.572 125.063 262.572H93.7538V306.293H80V204.347Z" fill="white"/>
<path d="M188.51 286.515C188.51 290.124 189.823 292.969 192.449 295.051C195.076 297.133 198.186 298.174 201.78 298.174C206.157 298.174 210.396 297.156 214.497 295.12C221.408 291.743 224.864 286.214 224.864 278.534V268.471C223.343 269.443 221.385 270.252 218.989 270.9C216.593 271.548 214.243 272.011 211.94 272.288L204.406 273.26C199.891 273.861 196.504 274.81 194.246 276.105C190.422 278.28 188.51 281.75 188.51 286.515ZM218.644 261.254C221.5 260.884 223.413 259.681 224.38 257.645C224.933 256.535 225.209 254.939 225.209 252.857C225.209 248.6 223.689 245.523 220.648 243.627C217.653 241.683 213.345 240.712 207.724 240.712C201.227 240.712 196.619 242.47 193.901 245.986C192.38 247.929 191.389 250.821 190.929 254.661H179.317C179.548 245.5 182.497 239.139 188.164 235.576C193.878 231.968 200.49 230.163 208 230.163C216.708 230.163 223.781 231.829 229.218 235.16C234.609 238.491 237.305 243.673 237.305 250.705V293.524C237.305 294.82 237.558 295.861 238.065 296.647C238.618 297.434 239.747 297.827 241.451 297.827C242.004 297.827 242.626 297.804 243.317 297.757C244.009 297.665 244.746 297.549 245.529 297.41V306.64C243.594 307.196 242.12 307.543 241.106 307.681C240.092 307.82 238.71 307.89 236.959 307.89C232.674 307.89 229.564 306.363 227.629 303.309C226.615 301.69 225.901 299.4 225.486 296.439C222.952 299.77 219.312 302.662 214.566 305.114C209.82 307.566 204.59 308.792 198.877 308.792C192.012 308.792 186.39 306.71 182.013 302.546C177.682 298.336 175.516 293.085 175.516 286.792C175.516 279.899 177.659 274.555 181.944 270.761C186.229 266.968 191.85 264.631 198.808 263.752L218.644 261.254Z" fill="white"/>
<path d="M265.641 269.998C265.641 277.956 267.323 284.618 270.687 289.985C274.05 295.352 279.441 298.035 286.86 298.035C292.619 298.035 297.342 295.56 301.028 290.609C304.76 285.613 306.626 278.465 306.626 269.165C306.626 259.773 304.714 252.833 300.89 248.346C297.066 243.812 292.343 241.545 286.721 241.545C280.455 241.545 275.364 243.95 271.447 248.762C267.577 253.574 265.641 260.652 265.641 269.998ZM284.371 230.649C290.039 230.649 294.785 231.852 298.609 234.258C300.821 235.646 303.332 238.075 306.143 241.545V204H318.099V306.293H306.903V295.953C304 300.533 300.567 303.841 296.605 305.877C292.642 307.913 288.104 308.931 282.989 308.931C274.742 308.931 267.6 305.461 261.564 298.521C255.528 291.535 252.51 282.258 252.51 270.692C252.51 259.866 255.251 250.497 260.734 242.586C266.263 234.628 274.143 230.649 284.371 230.649Z" fill="white"/>
<path d="M336.553 232.315H349.201V306.293H336.553V232.315ZM336.553 204.347H349.201V218.504H336.553V204.347Z" fill="white"/>
<path d="M397.443 298.243C405.69 298.243 411.335 295.12 414.376 288.874C417.463 282.582 419.006 275.596 419.006 267.916C419.006 260.976 417.901 255.332 415.689 250.983C412.187 244.135 406.151 240.712 397.581 240.712C389.978 240.712 384.449 243.627 380.994 249.456C377.538 255.286 375.81 262.318 375.81 270.553C375.81 278.465 377.538 285.058 380.994 290.332C384.449 295.606 389.932 298.243 397.443 298.243ZM397.927 229.816C407.464 229.816 415.528 233.009 422.117 239.393C428.706 245.778 432 255.17 432 267.569C432 279.552 429.097 289.453 423.292 297.272C417.486 305.091 408.478 309 396.268 309C386.085 309 377.999 305.553 372.009 298.66C366.019 291.72 363.024 282.42 363.024 270.761C363.024 258.27 366.18 248.323 372.492 240.92C378.805 233.518 387.283 229.816 397.927 229.816Z" fill="white"/>
</svg>
