<svg width="108" height="25" viewBox="0 0 108 25" fill="none" xmlns="http://www.w3.org/2000/svg">
<path d="M10.7031 0C13.6094 0 15.8646 0.765625 17.4688 2.29688C19.0729 3.82812 19.9635 5.56771 20.1406 7.51562H17.1094C16.7656 6.03646 16.0781 4.86458 15.0469 4C14.026 3.13542 12.5885 2.70312 10.7344 2.70312C8.47396 2.70312 6.64583 3.5 5.25 5.09375C3.86458 6.67708 3.17188 9.10938 3.17188 12.3906C3.17188 15.0781 3.79688 17.2604 5.04688 18.9375C6.30729 20.6042 8.18229 21.4375 10.6719 21.4375C12.9635 21.4375 14.7083 20.5573 15.9062 18.7969C16.5417 17.8698 17.0156 16.651 17.3281 15.1406H20.3594C20.0885 17.5573 19.1927 19.5833 17.6719 21.2188C15.849 23.1875 13.3906 24.1719 10.2969 24.1719C7.63021 24.1719 5.39062 23.3646 3.57812 21.75C1.19271 19.6146 0 16.3177 0 11.8594C0 8.47396 0.895833 5.69792 2.6875 3.53125C4.625 1.17708 7.29688 0 10.7031 0Z" fill="black"/>
<path d="M30.4219 21.7656C32.2865 21.7656 33.5625 21.0625 34.25 19.6562C34.9479 18.2396 35.2969 16.6667 35.2969 14.9375C35.2969 13.375 35.0469 12.1042 34.5469 11.125C33.7552 9.58333 32.3906 8.8125 30.4531 8.8125C28.7344 8.8125 27.4844 9.46875 26.7031 10.7812C25.9219 12.0938 25.5312 13.6771 25.5312 15.5312C25.5312 17.3125 25.9219 18.7969 26.7031 19.9844C27.4844 21.1719 28.724 21.7656 30.4219 21.7656ZM30.5312 6.35938C32.6875 6.35938 34.5104 7.07812 36 8.51562C37.4896 9.95312 38.2344 12.0677 38.2344 14.8594C38.2344 17.5573 37.5781 19.7865 36.2656 21.5469C34.9531 23.3073 32.9167 24.1875 30.1562 24.1875C27.8542 24.1875 26.026 23.4115 24.6719 21.8594C23.3177 20.2969 22.6406 18.2031 22.6406 15.5781C22.6406 12.7656 23.3542 10.526 24.7812 8.85938C26.2083 7.19271 28.125 6.35938 30.5312 6.35938Z" fill="black"/>
<path d="M41.6719 6.84375H44.3438V9.73438C44.5625 9.17188 45.099 8.48958 45.9531 7.6875C46.8073 6.875 47.7917 6.46875 48.9062 6.46875C48.9583 6.46875 49.0469 6.47396 49.1719 6.48438C49.2969 6.49479 49.5104 6.51562 49.8125 6.54688V9.51562C49.6458 9.48438 49.4896 9.46354 49.3438 9.45312C49.2083 9.44271 49.0573 9.4375 48.8906 9.4375C47.474 9.4375 46.3854 9.89583 45.625 10.8125C44.8646 11.7188 44.4844 12.7656 44.4844 13.9531V23.5781H41.6719V6.84375Z" fill="black"/>
<path d="M54.4062 19.125C54.4062 19.9375 54.7031 20.5781 55.2969 21.0469C55.8906 21.5156 56.5938 21.75 57.4062 21.75C58.3958 21.75 59.3542 21.5208 60.2812 21.0625C61.8438 20.3021 62.625 19.0573 62.625 17.3281V15.0625C62.2812 15.2812 61.8385 15.4635 61.2969 15.6094C60.7552 15.7552 60.224 15.8594 59.7031 15.9219L58 16.1406C56.9792 16.276 56.2135 16.4896 55.7031 16.7812C54.8385 17.2708 54.4062 18.0521 54.4062 19.125ZM61.2188 13.4375C61.8646 13.3542 62.2969 13.0833 62.5156 12.625C62.6406 12.375 62.7031 12.0156 62.7031 11.5469C62.7031 10.5885 62.3594 9.89583 61.6719 9.46875C60.9948 9.03125 60.0208 8.8125 58.75 8.8125C57.2812 8.8125 56.2396 9.20833 55.625 10C55.2812 10.4375 55.0573 11.0885 54.9531 11.9531H52.3281C52.3802 9.89062 53.0469 8.45833 54.3281 7.65625C55.6198 6.84375 57.1146 6.4375 58.8125 6.4375C60.7812 6.4375 62.3802 6.8125 63.6094 7.5625C64.8281 8.3125 65.4375 9.47917 65.4375 11.0625V20.7031C65.4375 20.9948 65.4948 21.2292 65.6094 21.4062C65.7344 21.5833 65.9896 21.6719 66.375 21.6719C66.5 21.6719 66.6406 21.6667 66.7969 21.6562C66.9531 21.6354 67.1198 21.6094 67.2969 21.5781V23.6562C66.8594 23.7812 66.526 23.8594 66.2969 23.8906C66.0677 23.9219 65.7552 23.9375 65.3594 23.9375C64.3906 23.9375 63.6875 23.5938 63.25 22.9062C63.0208 22.5417 62.8594 22.026 62.7656 21.3594C62.1927 22.1094 61.3698 22.7604 60.2969 23.3125C59.224 23.8646 58.0417 24.1406 56.75 24.1406C55.1979 24.1406 53.9271 23.6719 52.9375 22.7344C51.9583 21.7865 51.4688 20.6042 51.4688 19.1875C51.4688 17.6354 51.9531 16.4323 52.9219 15.5781C53.8906 14.724 55.1615 14.1979 56.7344 14L61.2188 13.4375Z" fill="black"/>
<path d="M76.5156 6.35938C78.401 6.35938 79.9323 6.81771 81.1094 7.73438C82.2969 8.65104 83.0104 10.2292 83.25 12.4688H80.5156C80.349 11.4375 79.9688 10.5833 79.375 9.90625C78.7812 9.21875 77.8281 8.875 76.5156 8.875C74.724 8.875 73.4427 9.75 72.6719 11.5C72.1719 12.6354 71.9219 14.0365 71.9219 15.7031C71.9219 17.3802 72.276 18.7917 72.9844 19.9375C73.6927 21.0833 74.8073 21.6562 76.3281 21.6562C77.4948 21.6562 78.4167 21.3021 79.0938 20.5938C79.7812 19.875 80.2552 18.8958 80.5156 17.6562H83.25C82.9375 19.875 82.1562 21.5 80.9062 22.5312C79.6562 23.5521 78.0573 24.0625 76.1094 24.0625C73.9219 24.0625 72.1771 23.2656 70.875 21.6719C69.5729 20.0677 68.9219 18.0677 68.9219 15.6719C68.9219 12.7344 69.6354 10.4479 71.0625 8.8125C72.4896 7.17708 74.3073 6.35938 76.5156 6.35938Z" fill="black"/>
<path d="M86.1406 0.625H88.9531V23.5781H86.1406V0.625Z" fill="black"/>
<path d="M100.156 6.46875C101.344 6.46875 102.495 6.75 103.609 7.3125C104.724 7.86458 105.573 8.58333 106.156 9.46875C106.719 10.3125 107.094 11.2969 107.281 12.4219C107.448 13.1927 107.531 14.4219 107.531 16.1094H95.2656C95.3177 17.8073 95.7188 19.1719 96.4688 20.2031C97.2188 21.224 98.3802 21.7344 99.9531 21.7344C101.422 21.7344 102.594 21.25 103.469 20.2812C103.969 19.7188 104.323 19.0677 104.531 18.3281H107.297C107.224 18.9427 106.979 19.6302 106.562 20.3906C106.156 21.1406 105.698 21.7552 105.188 22.2344C104.333 23.0677 103.276 23.6302 102.016 23.9219C101.339 24.0885 100.573 24.1719 99.7188 24.1719C97.6354 24.1719 95.8698 23.4167 94.4219 21.9062C92.974 20.3854 92.25 18.2604 92.25 15.5312C92.25 12.8438 92.9792 10.6615 94.4375 8.98438C95.8958 7.30729 97.8021 6.46875 100.156 6.46875ZM104.641 13.875C104.526 12.6562 104.26 11.6823 103.844 10.9531C103.073 9.59896 101.786 8.92188 99.9844 8.92188C98.6927 8.92188 97.6094 9.39062 96.7344 10.3281C95.8594 11.2552 95.3958 12.4375 95.3438 13.875H104.641Z" fill="black"/>
</svg>
