<svg width="782" height="782" viewBox="0 0 782 782" fill="none" xmlns="http://www.w3.org/2000/svg">
<rect x="83" y="83" width="616" height="616" rx="116" fill="#EEEEEE"/>
<g clip-path="url(#clip0_7_10)">
<path d="M166 383.757V345.326H198.866C205.745 345.326 210.905 346.856 214.344 349.915C217.784 352.846 219.503 357.626 219.503 364.254C219.503 371.138 217.784 376.109 214.344 379.168C210.905 382.227 205.745 383.757 198.866 383.757H166ZM136 322V458.514H166V405.171H196C203.516 405.171 208.93 406.828 212.242 410.142C215.554 413.456 217.72 418.682 218.739 425.82C219.503 431.301 220.077 437.037 220.459 443.027C220.841 449.018 221.86 454.181 223.516 458.514H253.516C252.115 456.602 251.032 454.308 250.268 451.631C249.631 448.827 249.121 445.895 248.739 442.836C248.484 439.777 248.293 436.782 248.166 433.85C248.038 430.918 247.911 428.369 247.784 426.202C247.529 422.761 247.019 419.319 246.255 415.878C245.618 412.436 244.535 409.313 243.007 406.509C241.478 403.577 239.503 401.092 237.083 399.052C234.663 396.885 231.605 395.292 227.911 394.272V393.89C235.554 390.831 241.032 386.369 244.344 380.506C247.784 374.643 249.503 367.696 249.503 359.666C249.503 354.44 248.548 349.596 246.637 345.135C244.854 340.546 242.179 336.531 238.612 333.089C235.172 329.648 230.968 326.971 226 325.059C221.159 323.02 215.682 322 209.567 322H136Z" fill="black"/>
<path d="M269.949 390.066C270.331 383.693 271.923 378.403 274.726 374.197C277.529 369.99 281.095 366.613 285.427 364.063C289.758 361.514 294.599 359.73 299.949 358.71C305.427 357.563 310.904 356.989 316.382 356.989C321.35 356.989 326.382 357.371 331.478 358.136C336.573 358.773 341.223 360.112 345.427 362.151C349.631 364.191 353.07 367.059 355.745 370.755C358.42 374.324 359.758 379.104 359.758 385.095V436.527C359.758 440.988 360.013 445.258 360.522 449.337C361.032 453.416 361.924 456.475 363.198 458.514H335.682C335.172 456.985 334.726 455.455 334.344 453.926C334.089 452.269 333.898 450.612 333.771 448.955C329.44 453.416 324.344 456.539 318.484 458.323C312.624 460.108 306.637 461 300.522 461C295.809 461 291.414 460.426 287.338 459.279C283.261 458.132 279.694 456.348 276.637 453.926C273.58 451.504 271.159 448.445 269.376 444.748C267.72 441.052 266.892 436.654 266.892 431.556C266.892 425.947 267.847 421.359 269.758 417.79C271.796 414.093 274.344 411.161 277.401 408.994C280.586 406.828 284.153 405.234 288.102 404.215C292.178 403.067 296.255 402.175 300.331 401.538C304.408 400.9 308.42 400.391 312.369 400.008C316.318 399.626 319.822 399.052 322.879 398.287C325.936 397.523 328.357 396.439 330.14 395.037C331.924 393.508 332.752 391.341 332.624 388.536C332.624 385.605 332.115 383.31 331.096 381.653C330.204 379.869 328.93 378.53 327.274 377.638C325.745 376.618 323.898 375.981 321.732 375.726C319.694 375.344 317.465 375.153 315.045 375.153C309.694 375.153 305.49 376.3 302.433 378.594C299.376 380.889 297.592 384.712 297.083 390.066H269.949ZM332.624 410.142C331.478 411.161 330.013 411.99 328.229 412.627C326.573 413.137 324.726 413.583 322.688 413.966C320.777 414.348 318.739 414.667 316.573 414.922C314.408 415.177 312.242 415.495 310.076 415.878C308.038 416.26 306 416.77 303.962 417.407C302.051 418.044 300.331 418.937 298.802 420.084C297.401 421.104 296.255 422.442 295.363 424.099C294.471 425.756 294.025 427.859 294.025 430.409C294.025 432.83 294.471 434.87 295.363 436.527C296.255 438.184 297.465 439.522 298.994 440.542C300.522 441.434 302.306 442.071 304.344 442.454C306.382 442.836 308.484 443.028 310.65 443.028C316 443.028 320.14 442.135 323.07 440.351C326 438.566 328.166 436.463 329.567 434.041C330.968 431.492 331.796 428.943 332.051 426.393C332.433 423.844 332.624 421.805 332.624 420.275V410.142Z" fill="black"/>
<path d="M450.905 408.803C450.905 412.882 450.523 416.834 449.758 420.657C448.994 424.481 447.72 427.923 445.937 430.982C444.153 433.914 441.733 436.272 438.675 438.056C435.746 439.841 432.051 440.733 427.593 440.733C423.389 440.733 419.758 439.841 416.701 438.056C413.771 436.144 411.287 433.722 409.249 430.791C407.338 427.732 405.936 424.29 405.045 420.466C404.153 416.642 403.707 412.818 403.707 408.994C403.707 404.916 404.089 401.028 404.854 397.331C405.745 393.507 407.083 390.13 408.866 387.198C410.777 384.266 413.261 381.908 416.319 380.124C419.376 378.339 423.134 377.447 427.593 377.447C432.051 377.447 435.746 378.339 438.675 380.124C441.605 381.908 443.962 384.266 445.745 387.198C447.656 390.002 448.994 393.316 449.758 397.14C450.523 400.837 450.905 404.724 450.905 408.803ZM451.287 445.895V458.514H477.083V322H449.949V371.711H449.567C446.51 366.867 442.306 363.235 436.956 360.813C431.733 358.264 426.191 356.989 420.331 356.989C413.07 356.989 406.701 358.455 401.223 361.387C395.745 364.191 391.159 367.951 387.465 372.667C383.898 377.383 381.159 382.864 379.249 389.11C377.465 395.228 376.573 401.601 376.573 408.23C376.573 415.113 377.465 421.741 379.249 428.114C381.159 434.487 383.898 440.159 387.465 445.131C391.159 449.974 395.809 453.862 401.414 456.794C407.019 459.598 413.516 461 420.905 461C427.402 461 433.198 459.853 438.293 457.558C443.516 455.137 447.72 451.249 450.905 445.895H451.287Z" fill="black"/>
<path d="M525.427 344.37V322H498.293V344.37H525.427ZM498.293 359.666V458.514H525.427V359.666H498.293Z" fill="black"/>
<path d="M570.904 409.186C570.904 405.234 571.287 401.347 572.051 397.523C572.815 393.699 574.089 390.321 575.873 387.389C577.784 384.458 580.268 382.099 583.325 380.315C586.382 378.403 590.204 377.447 594.79 377.447C599.376 377.447 603.198 378.403 606.255 380.315C609.44 382.099 611.924 384.458 613.707 387.389C615.618 390.321 616.956 393.699 617.72 397.523C618.484 401.347 618.866 405.234 618.866 409.186C618.866 413.137 618.484 417.025 617.72 420.849C616.956 424.545 615.618 427.923 613.707 430.982C611.924 433.914 609.44 436.272 606.255 438.056C603.198 439.841 599.376 440.733 594.79 440.733C590.204 440.733 586.382 439.841 583.325 438.056C580.268 436.272 577.784 433.914 575.873 430.982C574.089 427.923 572.815 424.545 572.051 420.849C571.287 417.025 570.904 413.137 570.904 409.186ZM543.771 409.186C543.771 417.089 544.981 424.226 547.401 430.6C549.822 436.973 553.261 442.454 557.72 447.043C562.178 451.504 567.529 454.945 573.771 457.367C580.013 459.789 587.019 461 594.79 461C602.561 461 609.567 459.789 615.809 457.367C622.179 454.945 627.593 451.504 632.051 447.043C636.51 442.454 639.949 436.973 642.37 430.6C644.79 424.226 646 417.089 646 409.186C646 401.283 644.79 394.145 642.37 387.772C639.949 381.271 636.51 375.79 632.051 371.329C627.593 366.74 622.179 363.235 615.809 360.813C609.567 358.264 602.561 356.989 594.79 356.989C587.019 356.989 580.013 358.264 573.771 360.813C567.529 363.235 562.178 366.74 557.72 371.329C553.261 375.79 549.822 381.271 547.401 387.772C544.981 394.145 543.771 401.283 543.771 409.186Z" fill="black"/>
</g>
<defs>
<clipPath id="clip0_7_10">
<rect width="510" height="139" fill="white" transform="translate(136 322)"/>
</clipPath>
</defs>
</svg>
