<svg width="484" height="62" viewBox="0 0 484 62" fill="none" xmlns="http://www.w3.org/2000/svg">
<path d="M36.8438 24.4688V42.1875C36.1771 43.0417 35.125 43.9688 33.6875 44.9688C32.2708 45.9688 30.4167 46.8333 28.125 47.5625C25.8333 48.2708 23.0208 48.625 19.6875 48.625C16.7917 48.625 14.1458 48.1458 11.75 47.1875C9.35417 46.2083 7.29167 44.7812 5.5625 42.9062C3.83333 41.0312 2.5 38.7396 1.5625 36.0312C0.625 33.3229 0.15625 30.2292 0.15625 26.75V23.75C0.15625 20.2708 0.59375 17.1771 1.46875 14.4688C2.36458 11.7604 3.63542 9.46875 5.28125 7.59375C6.94792 5.71875 8.9375 4.29167 11.25 3.3125C13.5833 2.33333 16.1875 1.84375 19.0625 1.84375C22.9167 1.84375 26.0833 2.47917 28.5625 3.75C31.0625 5.02083 32.9792 6.77083 34.3125 9C35.6458 11.2083 36.4792 13.75 36.8125 16.625H28.4375C28.2083 15.0417 27.75 13.6562 27.0625 12.4688C26.375 11.2604 25.3958 10.3229 24.125 9.65625C22.875 8.96875 21.25 8.625 19.25 8.625C17.5625 8.625 16.0729 8.95833 14.7812 9.625C13.4896 10.2917 12.4062 11.2604 11.5312 12.5312C10.6562 13.8021 9.98958 15.375 9.53125 17.25C9.09375 19.125 8.875 21.2708 8.875 23.6875V26.75C8.875 29.1875 9.125 31.3542 9.625 33.25C10.125 35.125 10.8438 36.7083 11.7812 38C12.7396 39.2708 13.9167 40.2396 15.3125 40.9062C16.7292 41.5521 18.3333 41.875 20.125 41.875C21.75 41.875 23.0938 41.7396 24.1562 41.4688C25.2396 41.1771 26.1042 40.8333 26.75 40.4375C27.3958 40.0417 27.8958 39.6562 28.25 39.2812V30.75H19.2188V24.4688H36.8438Z" fill="black"/>
<path d="M42.875 31.4375V30.7812C42.875 28.3021 43.2292 26.0208 43.9375 23.9375C44.6458 21.8333 45.6771 20.0104 47.0312 18.4688C48.3854 16.9271 50.0417 15.7292 52 14.875C53.9583 14 56.1875 13.5625 58.6875 13.5625C61.2292 13.5625 63.4792 14 65.4375 14.875C67.4167 15.7292 69.0833 16.9271 70.4375 18.4688C71.7917 20.0104 72.8229 21.8333 73.5312 23.9375C74.2396 26.0208 74.5938 28.3021 74.5938 30.7812V31.4375C74.5938 33.8958 74.2396 36.1771 73.5312 38.2812C72.8229 40.3646 71.7917 42.1875 70.4375 43.75C69.0833 45.2917 67.4271 46.4896 65.4688 47.3438C63.5104 48.1979 61.2708 48.625 58.75 48.625C56.25 48.625 54.0104 48.1979 52.0312 47.3438C50.0521 46.4896 48.3854 45.2917 47.0312 43.75C45.6771 42.1875 44.6458 40.3646 43.9375 38.2812C43.2292 36.1771 42.875 33.8958 42.875 31.4375ZM51.125 30.7812V31.4375C51.125 32.9167 51.2708 34.3021 51.5625 35.5938C51.8542 36.8854 52.3021 38.0208 52.9062 39C53.5104 39.9792 54.2917 40.75 55.25 41.3125C56.2292 41.8542 57.3958 42.125 58.75 42.125C60.0833 42.125 61.2292 41.8542 62.1875 41.3125C63.1458 40.75 63.9271 39.9792 64.5312 39C65.1562 38.0208 65.6146 36.8854 65.9062 35.5938C66.1979 34.3021 66.3438 32.9167 66.3438 31.4375V30.7812C66.3438 29.3229 66.1979 27.9583 65.9062 26.6875C65.6146 25.3958 65.1562 24.2604 64.5312 23.2812C63.9271 22.2812 63.1354 21.5 62.1562 20.9375C61.1979 20.3542 60.0417 20.0625 58.6875 20.0625C57.3542 20.0625 56.2083 20.3542 55.25 20.9375C54.2917 21.5 53.5104 22.2812 52.9062 23.2812C52.3021 24.2604 51.8542 25.3958 51.5625 26.6875C51.2708 27.9583 51.125 29.3229 51.125 30.7812Z" fill="black"/>
<path d="M102.094 14.1875H109.594V46.9688C109.594 50.0312 108.927 52.625 107.594 54.75C106.281 56.8958 104.438 58.5208 102.062 59.625C99.6875 60.75 96.9271 61.3125 93.7812 61.3125C92.4271 61.3125 90.9583 61.125 89.375 60.75C87.8125 60.375 86.3021 59.7812 84.8438 58.9688C83.4062 58.1771 82.2083 57.1458 81.25 55.875L84.9688 51C86.0938 52.3125 87.3646 53.3021 88.7812 53.9688C90.1979 54.6562 91.7292 55 93.375 55C95.0417 55 96.4583 54.6875 97.625 54.0625C98.8125 53.4583 99.7188 52.5625 100.344 51.375C100.99 50.2083 101.312 48.7708 101.312 47.0625V21.9062L102.094 14.1875ZM79.25 31.5V30.8438C79.25 28.2604 79.5625 25.9167 80.1875 23.8125C80.8125 21.6875 81.7083 19.8646 82.875 18.3438C84.0625 16.8229 85.4896 15.6458 87.1562 14.8125C88.8438 13.9792 90.7396 13.5625 92.8438 13.5625C95.0729 13.5625 96.9479 13.9688 98.4688 14.7812C100.01 15.5938 101.281 16.75 102.281 18.25C103.302 19.75 104.094 21.5312 104.656 23.5938C105.24 25.6354 105.688 27.8854 106 30.3438V32.125C105.708 34.5208 105.24 36.7188 104.594 38.7188C103.969 40.7188 103.135 42.4688 102.094 43.9688C101.052 45.4479 99.7604 46.5938 98.2188 47.4062C96.6771 48.2188 94.8646 48.625 92.7812 48.625C90.6979 48.625 88.8229 48.1979 87.1562 47.3438C85.4896 46.4896 84.0625 45.2917 82.875 43.75C81.7083 42.2083 80.8125 40.3958 80.1875 38.3125C79.5625 36.2292 79.25 33.9583 79.25 31.5ZM87.5 30.8438V31.5C87.5 32.9583 87.6458 34.3229 87.9375 35.5938C88.2292 36.8646 88.6771 37.9896 89.2812 38.9688C89.8854 39.9271 90.6458 40.6771 91.5625 41.2188C92.4792 41.7604 93.5729 42.0312 94.8438 42.0312C96.5521 42.0312 97.9479 41.6771 99.0312 40.9688C100.135 40.2396 100.969 39.25 101.531 38C102.115 36.7292 102.49 35.3021 102.656 33.7188V28.8125C102.552 27.5625 102.323 26.4062 101.969 25.3438C101.635 24.2812 101.167 23.3646 100.562 22.5938C99.9583 21.8229 99.1875 21.2188 98.25 20.7812C97.3125 20.3438 96.1979 20.125 94.9062 20.125C93.6562 20.125 92.5625 20.4062 91.625 20.9688C90.6875 21.5104 89.9167 22.2708 89.3125 23.25C88.7083 24.2292 88.25 25.3646 87.9375 26.6562C87.6458 27.9479 87.5 29.3438 87.5 30.8438Z" fill="black"/>
<path d="M125.781 0V48H117.5V0H125.781Z" fill="black"/>
<path d="M148.844 48.625C146.281 48.625 143.979 48.2083 141.938 47.375C139.896 46.5417 138.156 45.3854 136.719 43.9062C135.302 42.4062 134.208 40.6667 133.438 38.6875C132.688 36.6875 132.312 34.5417 132.312 32.25V31C132.312 28.3958 132.688 26.0312 133.438 23.9062C134.188 21.7604 135.25 19.9167 136.625 18.375C138 16.8333 139.646 15.6458 141.562 14.8125C143.479 13.9792 145.594 13.5625 147.906 13.5625C150.302 13.5625 152.417 13.9688 154.25 14.7812C156.083 15.5729 157.615 16.6979 158.844 18.1562C160.073 19.6146 161 21.3646 161.625 23.4062C162.25 25.4271 162.562 27.6667 162.562 30.125V33.5938H136.062V27.9062H154.438V27.2812C154.396 25.9688 154.146 24.7708 153.688 23.6875C153.229 22.5833 152.521 21.7083 151.562 21.0625C150.604 20.3958 149.365 20.0625 147.844 20.0625C146.615 20.0625 145.542 20.3333 144.625 20.875C143.729 21.3958 142.979 22.1458 142.375 23.125C141.792 24.0833 141.354 25.2292 141.062 26.5625C140.771 27.8958 140.625 29.375 140.625 31V32.25C140.625 33.6667 140.812 34.9792 141.188 36.1875C141.583 37.3958 142.156 38.4479 142.906 39.3438C143.677 40.2188 144.594 40.9062 145.656 41.4062C146.74 41.8854 147.969 42.125 149.344 42.125C151.073 42.125 152.635 41.7917 154.031 41.125C155.448 40.4375 156.677 39.4271 157.719 38.0938L161.875 42.4062C161.167 43.4479 160.208 44.4479 159 45.4062C157.812 46.3646 156.375 47.1458 154.688 47.75C153 48.3333 151.052 48.625 148.844 48.625Z" fill="black"/>
<path d="M188.375 40.8125V0H196.688V48H189.188L188.375 40.8125ZM166.656 31.5V30.8438C166.656 28.2604 166.948 25.9167 167.531 23.8125C168.135 21.6875 169.01 19.8646 170.156 18.3438C171.302 16.8229 172.688 15.6458 174.312 14.8125C175.958 13.9792 177.823 13.5625 179.906 13.5625C181.927 13.5625 183.688 13.9688 185.188 14.7812C186.708 15.5938 188 16.75 189.062 18.25C190.146 19.75 191.01 21.5312 191.656 23.5938C192.302 25.6354 192.771 27.8854 193.062 30.3438V32.125C192.771 34.5208 192.302 36.7188 191.656 38.7188C191.01 40.7188 190.146 42.4688 189.062 43.9688C188 45.4479 186.708 46.5938 185.188 47.4062C183.667 48.2188 181.885 48.625 179.844 48.625C177.781 48.625 175.927 48.1979 174.281 47.3438C172.656 46.4896 171.271 45.2917 170.125 43.75C169 42.2083 168.135 40.3958 167.531 38.3125C166.948 36.2292 166.656 33.9583 166.656 31.5ZM174.938 30.8438V31.5C174.938 32.9583 175.062 34.3229 175.312 35.5938C175.562 36.8646 175.969 37.9896 176.531 38.9688C177.094 39.9271 177.812 40.6771 178.688 41.2188C179.583 41.7604 180.667 42.0312 181.938 42.0312C183.562 42.0312 184.896 41.6771 185.938 40.9688C187 40.2396 187.823 39.25 188.406 38C188.99 36.7292 189.365 35.3021 189.531 33.7188V28.8125C189.448 27.5625 189.229 26.4062 188.875 25.3438C188.542 24.2812 188.062 23.3646 187.438 22.5938C186.833 21.8229 186.083 21.2188 185.188 20.7812C184.292 20.3438 183.229 20.125 182 20.125C180.729 20.125 179.646 20.4062 178.75 20.9688C177.854 21.5104 177.125 22.2708 176.562 23.25C176 24.2292 175.583 25.3646 175.312 26.6562C175.062 27.9479 174.938 29.3438 174.938 30.8438Z" fill="black"/>
<path d="M224.438 40.8125V0H232.75V48H225.25L224.438 40.8125ZM202.719 31.5V30.8438C202.719 28.2604 203.01 25.9167 203.594 23.8125C204.198 21.6875 205.073 19.8646 206.219 18.3438C207.365 16.8229 208.75 15.6458 210.375 14.8125C212.021 13.9792 213.885 13.5625 215.969 13.5625C217.99 13.5625 219.75 13.9688 221.25 14.7812C222.771 15.5938 224.062 16.75 225.125 18.25C226.208 19.75 227.073 21.5312 227.719 23.5938C228.365 25.6354 228.833 27.8854 229.125 30.3438V32.125C228.833 34.5208 228.365 36.7188 227.719 38.7188C227.073 40.7188 226.208 42.4688 225.125 43.9688C224.062 45.4479 222.771 46.5938 221.25 47.4062C219.729 48.2188 217.948 48.625 215.906 48.625C213.844 48.625 211.99 48.1979 210.344 47.3438C208.719 46.4896 207.333 45.2917 206.188 43.75C205.062 42.2083 204.198 40.3958 203.594 38.3125C203.01 36.2292 202.719 33.9583 202.719 31.5ZM211 30.8438V31.5C211 32.9583 211.125 34.3229 211.375 35.5938C211.625 36.8646 212.031 37.9896 212.594 38.9688C213.156 39.9271 213.875 40.6771 214.75 41.2188C215.646 41.7604 216.729 42.0312 218 42.0312C219.625 42.0312 220.958 41.6771 222 40.9688C223.062 40.2396 223.885 39.25 224.469 38C225.052 36.7292 225.427 35.3021 225.594 33.7188V28.8125C225.51 27.5625 225.292 26.4062 224.938 25.3438C224.604 24.2812 224.125 23.3646 223.5 22.5938C222.896 21.8229 222.146 21.2188 221.25 20.7812C220.354 20.3438 219.292 20.125 218.062 20.125C216.792 20.125 215.708 20.4062 214.812 20.9688C213.917 21.5104 213.188 22.2708 212.625 23.25C212.062 24.2292 211.646 25.3646 211.375 26.6562C211.125 27.9479 211 29.3438 211 30.8438Z" fill="black"/>
<path d="M293.625 24.0938V26.4375C293.625 29.875 293.167 32.9688 292.25 35.7188C291.333 38.4479 290.031 40.7708 288.344 42.6875C286.656 44.6042 284.646 46.0729 282.312 47.0938C279.979 48.1146 277.385 48.625 274.531 48.625C271.719 48.625 269.135 48.1146 266.781 47.0938C264.448 46.0729 262.427 44.6042 260.719 42.6875C259.01 40.7708 257.688 38.4479 256.75 35.7188C255.812 32.9688 255.344 29.875 255.344 26.4375V24.0938C255.344 20.6354 255.812 17.5417 256.75 14.8125C257.688 12.0833 259 9.76042 260.688 7.84375C262.375 5.90625 264.385 4.42708 266.719 3.40625C269.073 2.38542 271.656 1.875 274.469 1.875C277.323 1.875 279.917 2.38542 282.25 3.40625C284.583 4.42708 286.594 5.90625 288.281 7.84375C289.99 9.76042 291.302 12.0833 292.219 14.8125C293.156 17.5417 293.625 20.6354 293.625 24.0938ZM284.938 26.4375V24.0312C284.938 21.5521 284.708 19.375 284.25 17.5C283.792 15.6042 283.115 14.0104 282.219 12.7188C281.323 11.4271 280.219 10.4583 278.906 9.8125C277.594 9.14583 276.115 8.8125 274.469 8.8125C272.802 8.8125 271.323 9.14583 270.031 9.8125C268.76 10.4583 267.677 11.4271 266.781 12.7188C265.885 14.0104 265.198 15.6042 264.719 17.5C264.26 19.375 264.031 21.5521 264.031 24.0312V26.4375C264.031 28.8958 264.26 31.0729 264.719 32.9688C265.198 34.8646 265.885 36.4688 266.781 37.7812C267.698 39.0729 268.802 40.0521 270.094 40.7188C271.385 41.3854 272.865 41.7188 274.531 41.7188C276.198 41.7188 277.677 41.3854 278.969 40.7188C280.26 40.0521 281.344 39.0729 282.219 37.7812C283.115 36.4688 283.792 34.8646 284.25 32.9688C284.708 31.0729 284.938 28.8958 284.938 26.4375Z" fill="black"/>
<path d="M308.531 21.0938V48H300.281V14.1875H308.094L308.531 21.0938ZM318.812 13.9688L318.688 21.6562C318.229 21.5729 317.708 21.5104 317.125 21.4688C316.562 21.4271 316.031 21.4062 315.531 21.4062C314.26 21.4062 313.146 21.5833 312.188 21.9375C311.229 22.2708 310.427 22.7604 309.781 23.4062C309.156 24.0521 308.677 24.8438 308.344 25.7812C308.01 26.6979 307.823 27.7396 307.781 28.9062L306 28.6875C306 26.5417 306.219 24.5521 306.656 22.7188C307.094 20.8854 307.729 19.2812 308.562 17.9062C309.396 16.5312 310.438 15.4688 311.688 14.7188C312.958 13.9479 314.417 13.5625 316.062 13.5625C316.521 13.5625 317.01 13.6042 317.531 13.6875C318.073 13.75 318.5 13.8438 318.812 13.9688Z" fill="black"/>
<path d="M332.094 0V48H323.812V0H332.094Z" fill="black"/>
<path d="M348.719 0V48H340.438V0H348.719Z" fill="black"/>
<path d="M371.781 48.625C369.219 48.625 366.917 48.2083 364.875 47.375C362.833 46.5417 361.094 45.3854 359.656 43.9062C358.24 42.4062 357.146 40.6667 356.375 38.6875C355.625 36.6875 355.25 34.5417 355.25 32.25V31C355.25 28.3958 355.625 26.0312 356.375 23.9062C357.125 21.7604 358.188 19.9167 359.562 18.375C360.938 16.8333 362.583 15.6458 364.5 14.8125C366.417 13.9792 368.531 13.5625 370.844 13.5625C373.24 13.5625 375.354 13.9688 377.188 14.7812C379.021 15.5729 380.552 16.6979 381.781 18.1562C383.01 19.6146 383.938 21.3646 384.562 23.4062C385.188 25.4271 385.5 27.6667 385.5 30.125V33.5938H359V27.9062H377.375V27.2812C377.333 25.9688 377.083 24.7708 376.625 23.6875C376.167 22.5833 375.458 21.7083 374.5 21.0625C373.542 20.3958 372.302 20.0625 370.781 20.0625C369.552 20.0625 368.479 20.3333 367.562 20.875C366.667 21.3958 365.917 22.1458 365.312 23.125C364.729 24.0833 364.292 25.2292 364 26.5625C363.708 27.8958 363.562 29.375 363.562 31V32.25C363.562 33.6667 363.75 34.9792 364.125 36.1875C364.521 37.3958 365.094 38.4479 365.844 39.3438C366.615 40.2188 367.531 40.9062 368.594 41.4062C369.677 41.8854 370.906 42.125 372.281 42.125C374.01 42.125 375.573 41.7917 376.969 41.125C378.385 40.4375 379.615 39.4271 380.656 38.0938L384.812 42.4062C384.104 43.4479 383.146 44.4479 381.938 45.4062C380.75 46.3646 379.312 47.1458 377.625 47.75C375.938 48.3333 373.99 48.625 371.781 48.625Z" fill="black"/>
<path d="M400.438 39.875L407.844 14.1875H413.094L411.531 23.0625L404.062 48H399.531L400.438 39.875ZM396.344 14.1875L401.906 39.9375L402.406 48H397.188L388.312 14.1875H396.344ZM419.969 39.5625L425.406 14.1875H433.406L424.594 48H419.375L419.969 39.5625ZM413.906 14.1875L421.25 39.625L422.219 48H417.688L410.156 23.0625L408.625 14.1875H413.906Z" fill="black"/>
<path d="M447.031 14.1875V48H438.75V14.1875H447.031ZM438.188 5.34375C438.188 4.11458 438.604 3.09375 439.438 2.28125C440.292 1.46875 441.438 1.0625 442.875 1.0625C444.312 1.0625 445.448 1.46875 446.281 2.28125C447.135 3.09375 447.562 4.11458 447.562 5.34375C447.562 6.55208 447.135 7.5625 446.281 8.375C445.448 9.1875 444.312 9.59375 442.875 9.59375C441.438 9.59375 440.292 9.1875 439.438 8.375C438.604 7.5625 438.188 6.55208 438.188 5.34375Z" fill="black"/>
<path d="M463 21.4062V48H454.75V14.1875H462.5L463 21.4062ZM461.688 29.875H459.25C459.271 27.4167 459.604 25.1875 460.25 23.1875C460.896 21.1875 461.802 19.4688 462.969 18.0312C464.156 16.5938 465.562 15.4896 467.188 14.7188C468.812 13.9479 470.625 13.5625 472.625 13.5625C474.25 13.5625 475.719 13.7917 477.031 14.25C478.344 14.7083 479.469 15.4375 480.406 16.4375C481.365 17.4375 482.094 18.75 482.594 20.375C483.115 21.9792 483.375 23.9583 483.375 26.3125V48H475.062V26.25C475.062 24.7083 474.833 23.4896 474.375 22.5938C473.938 21.6979 473.292 21.0625 472.438 20.6875C471.604 20.3125 470.573 20.125 469.344 20.125C468.073 20.125 466.958 20.3854 466 20.9062C465.062 21.4062 464.271 22.1042 463.625 23C463 23.8958 462.521 24.9271 462.188 26.0938C461.854 27.2604 461.688 28.5208 461.688 29.875Z" fill="black"/>
</svg>
