<svg width="400" height="50" viewBox="0 0 400 50" fill="#dedede" xmlns="http://www.w3.org/2000/svg">
<path d="M17.998 9.82456C20.5668 9.82456 22.6492 7.62526 22.6492 4.91228C22.6492 2.1993 20.5668 0 17.998 0C15.4292 0 13.3468 2.1993 13.3468 4.91228C13.3468 7.62526 15.4292 9.82456 17.998 9.82456Z"/>
<path d="M80.6875 9.82456C83.2563 9.82456 85.3387 7.62526 85.3387 4.91228C85.3387 2.1993 83.2563 0 80.6875 0C78.1187 0 76.0363 2.1993 76.0363 4.91228C76.0363 7.62526 78.1187 9.82456 80.6875 9.82456Z"/>
<path d="M93.6296 22.9239C96.1983 22.9239 98.2807 20.7246 98.2807 18.0117C98.2807 15.2987 96.1983 13.0994 93.6296 13.0994C91.0608 13.0994 88.9784 15.2987 88.9784 18.0117C88.9784 20.7246 91.0608 22.9239 93.6296 22.9239Z"/>
<path d="M68.3519 9.82456C71.0323 9.82456 73.2052 7.62526 73.2052 4.91228C73.2052 2.1993 71.0323 0 68.3519 0C65.6714 0 63.4985 2.1993 63.4985 4.91228C63.4985 7.62526 65.6714 9.82456 68.3519 9.82456Z"/>
<path d="M55.6117 9.82456C58.1805 9.82456 60.2629 7.62526 60.2629 4.91228C60.2629 2.1993 58.1805 0 55.6117 0C53.043 0 50.9606 2.1993 50.9606 4.91228C50.9606 7.62526 53.043 9.82456 55.6117 9.82456Z"/>
<path d="M55.6117 49.1228C58.1805 49.1228 60.2629 46.9235 60.2629 44.2105C60.2629 41.4976 58.1805 39.2982 55.6117 39.2982C53.043 39.2982 50.9606 41.4976 50.9606 44.2105C50.9606 46.9235 53.043 49.1228 55.6117 49.1228Z"/>
<path d="M4.65116 22.9239C7.21993 22.9239 9.30232 20.7246 9.30232 18.0117C9.30232 15.2987 7.21993 13.0994 4.65116 13.0994C2.0824 13.0994 0 15.2987 0 18.0117C0 20.7246 2.0824 22.9239 4.65116 22.9239Z"/>
<path d="M4.65116 36.0234C7.21993 36.0234 9.30232 33.8241 9.30232 31.1111C9.30232 28.3982 7.21993 26.1989 4.65116 26.1989C2.0824 26.1989 0 28.3982 0 31.1111C0 33.8241 2.0824 36.0234 4.65116 36.0234Z"/>
<path d="M55.6117 49.1228C58.1805 49.1228 60.2629 46.9235 60.2629 44.2105C60.2629 41.4976 58.1805 39.2982 55.6117 39.2982C53.043 39.2982 50.9606 41.4976 50.9606 44.2105C50.9606 46.9235 53.043 49.1228 55.6117 49.1228Z"/>
<path d="M17.998 49.1228C20.5668 49.1228 22.6492 46.9235 22.6492 44.2105C22.6492 41.4976 20.5668 39.2982 17.998 39.2982C15.4292 39.2982 13.3468 41.4976 13.3468 44.2105C13.3468 46.9235 15.4292 49.1228 17.998 49.1228Z"/>
<path d="M30.5358 49.1228C33.1046 49.1228 35.187 46.9235 35.187 44.2105C35.187 41.4976 33.1046 39.2982 30.5358 39.2982C27.9671 39.2982 25.8847 41.4976 25.8847 44.2105C25.8847 46.9235 27.9671 49.1228 30.5358 49.1228Z"/>
<path d="M43.0738 36.0234C45.6425 36.0234 47.7249 33.8241 47.7249 31.1111C47.7249 28.3982 45.6425 26.1989 43.0738 26.1989C40.505 26.1989 38.4226 28.3982 38.4226 31.1111C38.4226 33.8241 40.505 36.0234 43.0738 36.0234Z"/>
<path d="M43.0738 49.1228C45.6425 49.1228 47.7249 46.9235 47.7249 44.2105C47.7249 41.4976 45.6425 39.2982 43.0738 39.2982C40.505 39.2982 38.4226 41.4976 38.4226 44.2105C38.4226 46.9235 40.505 49.1228 43.0738 49.1228Z"/>
<path d="M55.6117 36.0234C58.1805 36.0234 60.2629 33.8241 60.2629 31.1111C60.2629 28.3982 58.1805 26.1989 55.6117 26.1989C53.043 26.1989 50.9606 28.3982 50.9606 31.1111C50.9606 33.8241 53.043 36.0234 55.6117 36.0234Z"/>
<path d="M68.1496 36.0234C70.7183 36.0234 72.8007 33.8241 72.8007 31.1111C72.8007 28.3982 70.7183 26.1989 68.1496 26.1989C65.5808 26.1989 63.4984 28.3982 63.4984 31.1111C63.4984 33.8241 65.5808 36.0234 68.1496 36.0234Z"/>
<path d="M80.6875 36.0234C83.2563 36.0234 85.3387 33.8241 85.3387 31.1111C85.3387 28.3982 83.2563 26.1989 80.6875 26.1989C78.1187 26.1989 76.0363 28.3982 76.0363 31.1111C76.0363 33.8241 78.1187 36.0234 80.6875 36.0234Z"/>
<path d="M81.092 49.1228C83.6607 49.1228 85.7431 46.9235 85.7431 44.2105C85.7431 41.4976 83.6607 39.2982 81.092 39.2982C78.5232 39.2982 76.4408 41.4976 76.4408 44.2105C76.4408 46.9235 78.5232 49.1228 81.092 49.1228Z"/>
<path d="M93.6296 49.1228C96.1983 49.1228 98.2807 46.9235 98.2807 44.2105C98.2807 41.4976 96.1983 39.2982 93.6296 39.2982C91.0608 39.2982 88.9784 41.4976 88.9784 44.2105C88.9784 46.9235 91.0608 49.1228 93.6296 49.1228Z"/>
<path d="M106.168 49.1228C108.737 49.1228 110.819 46.9235 110.819 44.2105C110.819 41.4976 108.737 39.2982 106.168 39.2982C103.599 39.2982 101.517 41.4976 101.517 44.2105C101.517 46.9235 103.599 49.1228 106.168 49.1228Z"/>
<path d="M106.168 36.0234C108.737 36.0234 110.819 33.8241 110.819 31.1111C110.819 28.3982 108.737 26.1989 106.168 26.1989C103.599 26.1989 101.517 28.3982 101.517 31.1111C101.517 33.8241 103.599 36.0234 106.168 36.0234Z"/>
<path d="M106.168 22.9239C108.737 22.9239 110.819 20.7246 110.819 18.0117C110.819 15.2987 108.737 13.0994 106.168 13.0994C103.599 13.0994 101.517 15.2987 101.517 18.0117C101.517 20.7246 103.599 22.9239 106.168 22.9239Z"/>
<path d="M118.706 36.0234C121.275 36.0234 123.357 33.8241 123.357 31.1111C123.357 28.3982 121.275 26.1989 118.706 26.1989C116.137 26.1989 114.055 28.3982 114.055 31.1111C114.055 33.8241 116.137 36.0234 118.706 36.0234Z"/>
<path d="M131.243 36.0234C133.812 36.0234 135.894 33.8241 135.894 31.1111C135.894 28.3982 133.812 26.1989 131.243 26.1989C128.675 26.1989 126.592 28.3982 126.592 31.1111C126.592 33.8241 128.675 36.0234 131.243 36.0234Z"/>
<path d="M143.781 36.0234C146.35 36.0234 148.433 33.8241 148.433 31.1111C148.433 28.3982 146.35 26.1989 143.781 26.1989C141.213 26.1989 139.13 28.3982 139.13 31.1111C139.13 33.8241 141.213 36.0234 143.781 36.0234Z"/>
<path d="M143.781 22.9239C146.35 22.9239 148.433 20.7246 148.433 18.0117C148.433 15.2987 146.35 13.0994 143.781 13.0994C141.213 13.0994 139.13 15.2987 139.13 18.0117C139.13 20.7246 141.213 22.9239 143.781 22.9239Z"/>
<path d="M143.781 49.1228C146.35 49.1228 148.433 46.9235 148.433 44.2105C148.433 41.4976 146.35 39.2982 143.781 39.2982C141.213 39.2982 139.13 41.4976 139.13 44.2105C139.13 46.9235 141.213 49.1228 143.781 49.1228Z"/>
<path d="M156.32 49.1228C158.888 49.1228 160.971 46.9235 160.971 44.2105C160.971 41.4976 158.888 39.2982 156.32 39.2982C153.751 39.2982 151.669 41.4976 151.669 44.2105C151.669 46.9235 153.751 49.1228 156.32 49.1228Z"/>
<path d="M156.32 22.9239C158.888 22.9239 160.971 20.7246 160.971 18.0117C160.971 15.2987 158.888 13.0994 156.32 13.0994C153.751 13.0994 151.669 15.2987 151.669 18.0117C151.669 20.7246 153.751 22.9239 156.32 22.9239Z"/>
<path d="M156.32 9.82456C158.888 9.82456 160.971 7.62526 160.971 4.91228C160.971 2.1993 158.888 0 156.32 0C153.751 0 151.669 2.1993 151.669 4.91228C151.669 7.62526 153.751 9.82456 156.32 9.82456Z"/>
<path d="M168.857 22.9239C171.426 22.9239 173.508 20.7246 173.508 18.0117C173.508 15.2987 171.426 13.0994 168.857 13.0994C166.288 13.0994 164.206 15.2987 164.206 18.0117C164.206 20.7246 166.288 22.9239 168.857 22.9239Z"/>
<path d="M181.395 36.0234C183.964 36.0234 186.046 33.8241 186.046 31.1111C186.046 28.3982 183.964 26.1989 181.395 26.1989C178.826 26.1989 176.744 28.3982 176.744 31.1111C176.744 33.8241 178.826 36.0234 181.395 36.0234Z"/>
<path d="M193.933 36.0234C196.502 36.0234 198.585 33.8241 198.585 31.1111C198.585 28.3982 196.502 26.1989 193.933 26.1989C191.365 26.1989 189.282 28.3982 189.282 31.1111C189.282 33.8241 191.365 36.0234 193.933 36.0234Z"/>
<path d="M194.337 49.1228C196.906 49.1228 198.988 46.9235 198.988 44.2105C198.988 41.4976 196.906 39.2982 194.337 39.2982C191.769 39.2982 189.686 41.4976 189.686 44.2105C189.686 46.9235 191.769 49.1228 194.337 49.1228Z"/>
<path d="M194.337 22.9239C196.906 22.9239 198.988 20.7246 198.988 18.0117C198.988 15.2987 196.906 13.0994 194.337 13.0994C191.769 13.0994 189.686 15.2987 189.686 18.0117C189.686 20.7246 191.769 22.9239 194.337 22.9239Z"/>
<path d="M194.337 9.82456C196.906 9.82456 198.988 7.62526 198.988 4.91228C198.988 2.1993 196.906 0 194.337 0C191.769 0 189.686 2.1993 189.686 4.91228C189.686 7.62526 191.769 9.82456 194.337 9.82456Z"/>
<path d="M206.875 9.82456C209.444 9.82456 211.527 7.62526 211.527 4.91228C211.527 2.1993 209.444 0 206.875 0C204.307 0 202.224 2.1993 202.224 4.91228C202.224 7.62526 204.307 9.82456 206.875 9.82456Z"/>
<path d="M206.875 22.9239C209.444 22.9239 211.527 20.7246 211.527 18.0117C211.527 15.2987 209.444 13.0994 206.875 13.0994C204.307 13.0994 202.224 15.2987 202.224 18.0117C202.224 20.7246 204.307 22.9239 206.875 22.9239Z"/>
<path d="M206.875 36.0234C209.444 36.0234 211.527 33.8241 211.527 31.1111C211.527 28.3982 209.444 26.1989 206.875 26.1989C204.307 26.1989 202.224 28.3982 202.224 31.1111C202.224 33.8241 204.307 36.0234 206.875 36.0234Z"/>
<path d="M219.414 49.1228C221.982 49.1228 224.065 46.9235 224.065 44.2105C224.065 41.4976 221.982 39.2982 219.414 39.2982C216.845 39.2982 214.763 41.4976 214.763 44.2105C214.763 46.9235 216.845 49.1228 219.414 49.1228Z"/>
<path d="M231.951 49.1228C234.52 49.1228 236.602 46.9235 236.602 44.2105C236.602 41.4976 234.52 39.2982 231.951 39.2982C229.382 39.2982 227.3 41.4976 227.3 44.2105C227.3 46.9235 229.382 49.1228 231.951 49.1228Z"/>
<path d="M244.489 36.0234C247.058 36.0234 249.14 33.8241 249.14 31.1111C249.14 28.3982 247.058 26.1989 244.489 26.1989C241.92 26.1989 239.838 28.3982 239.838 31.1111C239.838 33.8241 241.92 36.0234 244.489 36.0234Z"/>
<path d="M244.489 22.9239C247.058 22.9239 249.14 20.7246 249.14 18.0117C249.14 15.2987 247.058 13.0994 244.489 13.0994C241.92 13.0994 239.838 15.2987 239.838 18.0117C239.838 20.7246 241.92 22.9239 244.489 22.9239Z"/>
<path d="M244.894 9.82456C247.463 9.82456 249.545 7.62526 249.545 4.91228C249.545 2.1993 247.463 0 244.894 0C242.325 0 240.243 2.1993 240.243 4.91228C240.243 7.62526 242.325 9.82456 244.894 9.82456Z"/>
<path d="M257.431 9.82456C260 9.82456 262.082 7.62526 262.082 4.91228C262.082 2.1993 260 0 257.431 0C254.863 0 252.78 2.1993 252.78 4.91228C252.78 7.62526 254.863 9.82456 257.431 9.82456Z"/>
<path d="M257.027 22.9239C259.596 22.9239 261.679 20.7246 261.679 18.0117C261.679 15.2987 259.596 13.0994 257.027 13.0994C254.459 13.0994 252.376 15.2987 252.376 18.0117C252.376 20.7246 254.459 22.9239 257.027 22.9239Z"/>
<path d="M257.027 36.0234C259.596 36.0234 261.679 33.8241 261.679 31.1111C261.679 28.3982 259.596 26.1989 257.027 26.1989C254.459 26.1989 252.376 28.3982 252.376 31.1111C252.376 33.8241 254.459 36.0234 257.027 36.0234Z"/>
<path d="M257.027 49.1228C259.596 49.1228 261.679 46.9235 261.679 44.2105C261.679 41.4976 259.596 39.2982 257.027 39.2982C254.459 39.2982 252.376 41.4976 252.376 44.2105C252.376 46.9235 254.459 49.1228 257.027 49.1228Z"/>
<path d="M269.565 49.1228C272.133 49.1228 274.216 46.9235 274.216 44.2105C274.216 41.4976 272.133 39.2982 269.565 39.2982C266.996 39.2982 264.914 41.4976 264.914 44.2105C264.914 46.9235 266.996 49.1228 269.565 49.1228Z"/>
<path d="M282.103 49.1228C284.672 49.1228 286.754 46.9235 286.754 44.2105C286.754 41.4976 284.672 39.2982 282.103 39.2982C279.534 39.2982 277.452 41.4976 277.452 44.2105C277.452 46.9235 279.534 49.1228 282.103 49.1228Z"/>
<path d="M294.641 49.1228C297.21 49.1228 299.292 46.9235 299.292 44.2105C299.292 41.4976 297.21 39.2982 294.641 39.2982C292.072 39.2982 289.99 41.4976 289.99 44.2105C289.99 46.9235 292.072 49.1228 294.641 49.1228Z"/>
<path d="M307.178 49.1228C309.747 49.1228 311.83 46.9235 311.83 44.2105C311.83 41.4976 309.747 39.2982 307.178 39.2982C304.61 39.2982 302.527 41.4976 302.527 44.2105C302.527 46.9235 304.61 49.1228 307.178 49.1228Z"/>
<path d="M307.178 36.0234C309.747 36.0234 311.83 33.8241 311.83 31.1111C311.83 28.3982 309.747 26.1989 307.178 26.1989C304.61 26.1989 302.527 28.3982 302.527 31.1111C302.527 33.8241 304.61 36.0234 307.178 36.0234Z"/>
<path d="M307.583 22.9239C310.152 22.9239 312.234 20.7246 312.234 18.0117C312.234 15.2987 310.152 13.0994 307.583 13.0994C305.014 13.0994 302.932 15.2987 302.932 18.0117C302.932 20.7246 305.014 22.9239 307.583 22.9239Z"/>
<path d="M319.717 36.0234C322.285 36.0234 324.368 33.8241 324.368 31.1111C324.368 28.3982 322.285 26.1989 319.717 26.1989C317.148 26.1989 315.065 28.3982 315.065 31.1111C315.065 33.8241 317.148 36.0234 319.717 36.0234Z"/>
<path d="M332.255 36.0234C334.824 36.0234 336.906 33.8241 336.906 31.1111C336.906 28.3982 334.824 26.1989 332.255 26.1989C329.686 26.1989 327.604 28.3982 327.604 31.1111C327.604 33.8241 329.686 36.0234 332.255 36.0234Z"/>
<path d="M344.792 36.0234C347.361 36.0234 349.443 33.8241 349.443 31.1111C349.443 28.3982 347.361 26.1989 344.792 26.1989C342.223 26.1989 340.141 28.3982 340.141 31.1111C340.141 33.8241 342.223 36.0234 344.792 36.0234Z"/>
<path d="M344.792 49.1228C347.361 49.1228 349.443 46.9235 349.443 44.2105C349.443 41.4976 347.361 39.2982 344.792 39.2982C342.223 39.2982 340.141 41.4976 340.141 44.2105C340.141 46.9235 342.223 49.1228 344.792 49.1228Z"/>
<path d="M357.33 49.1228C359.899 49.1228 361.982 46.9235 361.982 44.2105C361.982 41.4976 359.899 39.2982 357.33 39.2982C354.762 39.2982 352.679 41.4976 352.679 44.2105C352.679 46.9235 354.762 49.1228 357.33 49.1228Z"/>
<path d="M357.33 36.0234C359.899 36.0234 361.982 33.8241 361.982 31.1111C361.982 28.3982 359.899 26.1989 357.33 26.1989C354.762 26.1989 352.679 28.3982 352.679 31.1111C352.679 33.8241 354.762 36.0234 357.33 36.0234Z"/>
<path d="M369.869 36.0234C372.437 36.0234 374.52 33.8241 374.52 31.1111C374.52 28.3982 372.437 26.1989 369.869 26.1989C367.3 26.1989 365.217 28.3982 365.217 31.1111C365.217 33.8241 367.3 36.0234 369.869 36.0234Z"/>
<path d="M382.406 36.0234C384.975 36.0234 387.057 33.8241 387.057 31.1111C387.057 28.3982 384.975 26.1989 382.406 26.1989C379.837 26.1989 377.755 28.3982 377.755 31.1111C377.755 33.8241 379.837 36.0234 382.406 36.0234Z"/>
<path d="M382.406 49.1228C384.975 49.1228 387.057 46.9235 387.057 44.2105C387.057 41.4976 384.975 39.2982 382.406 39.2982C379.837 39.2982 377.755 41.4976 377.755 44.2105C377.755 46.9235 379.837 49.1228 382.406 49.1228Z"/>
<path d="M394.944 49.1228C397.513 49.1228 399.595 46.9235 399.595 44.2105C399.595 41.4976 397.513 39.2982 394.944 39.2982C392.375 39.2982 390.293 41.4976 390.293 44.2105C390.293 46.9235 392.375 49.1228 394.944 49.1228Z"/>
<path d="M395.349 22.9239C397.918 22.9239 400 20.7246 400 18.0117C400 15.2987 397.918 13.0994 395.349 13.0994C392.78 13.0994 390.698 15.2987 390.698 18.0117C390.698 20.7246 392.78 22.9239 395.349 22.9239Z"/>
<path d="M357.33 22.9239C359.899 22.9239 361.982 20.7246 361.982 18.0117C361.982 15.2987 359.899 13.0994 357.33 13.0994C354.762 13.0994 352.679 15.2987 352.679 18.0117C352.679 20.7246 354.762 22.9239 357.33 22.9239Z"/>
<path d="M357.33 9.82456C359.899 9.82456 361.982 7.62526 361.982 4.91228C361.982 2.1993 359.899 0 357.33 0C354.762 0 352.679 2.1993 352.679 4.91228C352.679 7.62526 354.762 9.82456 357.33 9.82456Z"/>
<path d="M369.869 9.82456C372.437 9.82456 374.52 7.62526 374.52 4.91228C374.52 2.1993 372.437 0 369.869 0C367.3 0 365.217 2.1993 365.217 4.91228C365.217 7.62526 367.3 9.82456 369.869 9.82456Z"/>
<path d="M382.406 9.82456C384.975 9.82456 387.057 7.62526 387.057 4.91228C387.057 2.1993 384.975 0 382.406 0C379.837 0 377.755 2.1993 377.755 4.91228C377.755 7.62526 379.837 9.82456 382.406 9.82456Z"/>
<path d="M344.792 22.9239C347.361 22.9239 349.443 20.7246 349.443 18.0117C349.443 15.2987 347.361 13.0994 344.792 13.0994C342.223 13.0994 340.141 15.2987 340.141 18.0117C340.141 20.7246 342.223 22.9239 344.792 22.9239Z"/>
<path d="M332.255 9.82456C334.824 9.82456 336.906 7.62526 336.906 4.91228C336.906 2.1993 334.824 0 332.255 0C329.686 0 327.604 2.1993 327.604 4.91228C327.604 7.62526 329.686 9.82456 332.255 9.82456Z"/>
<path d="M319.717 9.82456C322.285 9.82456 324.368 7.62526 324.368 4.91228C324.368 2.1993 322.285 0 319.717 0C317.148 0 315.065 2.1993 315.065 4.91228C315.065 7.62526 317.148 9.82456 319.717 9.82456Z"/>
<path d="M156.32 36.0234C158.888 36.0234 160.971 33.8241 160.971 31.1111C160.971 28.3982 158.888 26.1989 156.32 26.1989C153.751 26.1989 151.669 28.3982 151.669 31.1111C151.669 33.8241 153.751 36.0234 156.32 36.0234Z"/>
<path d="M131.243 9.82456C133.812 9.82456 135.894 7.62526 135.894 4.91228C135.894 2.1993 133.812 0 131.243 0C128.675 0 126.592 2.1993 126.592 4.91228C126.592 7.62526 128.675 9.82456 131.243 9.82456Z"/>
<path d="M118.706 9.82456C121.275 9.82456 123.357 7.62526 123.357 4.91228C123.357 2.1993 121.275 0 118.706 0C116.137 0 114.055 2.1993 114.055 4.91228C114.055 7.62526 116.137 9.82456 118.706 9.82456Z"/>
<path d="M55.6117 22.9239C58.1805 22.9239 60.2629 20.7246 60.2629 18.0117C60.2629 15.2987 58.1805 13.0994 55.6117 13.0994C53.043 13.0994 50.9606 15.2987 50.9606 18.0117C50.9606 20.7246 53.043 22.9239 55.6117 22.9239Z"/>
<path d="M43.0738 9.82456C45.6425 9.82456 47.7249 7.62526 47.7249 4.91228C47.7249 2.1993 45.6425 0 43.0738 0C40.505 0 38.4226 2.1993 38.4226 4.91228C38.4226 7.62526 40.505 9.82456 43.0738 9.82456Z"/>
<path d="M30.3336 9.82456C33.0141 9.82456 35.187 7.62526 35.187 4.91228C35.187 2.1993 33.0141 0 30.3336 0C27.6532 0 25.4803 2.1993 25.4803 4.91228C25.4803 7.62526 27.6532 9.82456 30.3336 9.82456Z"/>
<path d="M17.998 9.82456C20.5668 9.82456 22.6492 7.62526 22.6492 4.91228C22.6492 2.1993 20.5668 0 17.998 0C15.4292 0 13.3468 2.1993 13.3468 4.91228C13.3468 7.62526 15.4292 9.82456 17.998 9.82456Z"/>
<path d="M80.6875 9.82456C83.2563 9.82456 85.3387 7.62526 85.3387 4.91228C85.3387 2.1993 83.2563 0 80.6875 0C78.1187 0 76.0363 2.1993 76.0363 4.91228C76.0363 7.62526 78.1187 9.82456 80.6875 9.82456Z"/>
<path d="M93.6296 22.9239C96.1983 22.9239 98.2807 20.7246 98.2807 18.0117C98.2807 15.2987 96.1983 13.0994 93.6296 13.0994C91.0608 13.0994 88.9784 15.2987 88.9784 18.0117C88.9784 20.7246 91.0608 22.9239 93.6296 22.9239Z"/>
<path d="M68.3519 9.82456C71.0323 9.82456 73.2052 7.62526 73.2052 4.91228C73.2052 2.1993 71.0323 0 68.3519 0C65.6714 0 63.4985 2.1993 63.4985 4.91228C63.4985 7.62526 65.6714 9.82456 68.3519 9.82456Z"/>
<path d="M55.6117 9.82456C58.1805 9.82456 60.2629 7.62526 60.2629 4.91228C60.2629 2.1993 58.1805 0 55.6117 0C53.043 0 50.9606 2.1993 50.9606 4.91228C50.9606 7.62526 53.043 9.82456 55.6117 9.82456Z"/>
<path d="M55.6117 49.1228C58.1805 49.1228 60.2629 46.9235 60.2629 44.2105C60.2629 41.4976 58.1805 39.2982 55.6117 39.2982C53.043 39.2982 50.9606 41.4976 50.9606 44.2105C50.9606 46.9235 53.043 49.1228 55.6117 49.1228Z"/>
<path d="M4.65116 22.9239C7.21993 22.9239 9.30232 20.7246 9.30232 18.0117C9.30232 15.2987 7.21993 13.0994 4.65116 13.0994C2.0824 13.0994 0 15.2987 0 18.0117C0 20.7246 2.0824 22.9239 4.65116 22.9239Z"/>
<path d="M4.65116 36.0234C7.21993 36.0234 9.30232 33.8241 9.30232 31.1111C9.30232 28.3982 7.21993 26.1989 4.65116 26.1989C2.0824 26.1989 0 28.3982 0 31.1111C0 33.8241 2.0824 36.0234 4.65116 36.0234Z"/>
<path d="M55.6117 49.1228C58.1805 49.1228 60.2629 46.9235 60.2629 44.2105C60.2629 41.4976 58.1805 39.2982 55.6117 39.2982C53.043 39.2982 50.9606 41.4976 50.9606 44.2105C50.9606 46.9235 53.043 49.1228 55.6117 49.1228Z"/>
<path d="M17.998 49.1228C20.5668 49.1228 22.6492 46.9235 22.6492 44.2105C22.6492 41.4976 20.5668 39.2982 17.998 39.2982C15.4292 39.2982 13.3468 41.4976 13.3468 44.2105C13.3468 46.9235 15.4292 49.1228 17.998 49.1228Z"/>
<path d="M30.5358 49.1228C33.1046 49.1228 35.187 46.9235 35.187 44.2105C35.187 41.4976 33.1046 39.2982 30.5358 39.2982C27.9671 39.2982 25.8847 41.4976 25.8847 44.2105C25.8847 46.9235 27.9671 49.1228 30.5358 49.1228Z"/>
<path d="M43.0738 36.0234C45.6425 36.0234 47.7249 33.8241 47.7249 31.1111C47.7249 28.3982 45.6425 26.1989 43.0738 26.1989C40.505 26.1989 38.4226 28.3982 38.4226 31.1111C38.4226 33.8241 40.505 36.0234 43.0738 36.0234Z"/>
<path d="M43.0738 49.1228C45.6425 49.1228 47.7249 46.9235 47.7249 44.2105C47.7249 41.4976 45.6425 39.2982 43.0738 39.2982C40.505 39.2982 38.4226 41.4976 38.4226 44.2105C38.4226 46.9235 40.505 49.1228 43.0738 49.1228Z"/>
<path d="M55.6117 36.0234C58.1805 36.0234 60.2629 33.8241 60.2629 31.1111C60.2629 28.3982 58.1805 26.1989 55.6117 26.1989C53.043 26.1989 50.9606 28.3982 50.9606 31.1111C50.9606 33.8241 53.043 36.0234 55.6117 36.0234Z"/>
<path d="M68.1496 36.0234C70.7183 36.0234 72.8007 33.8241 72.8007 31.1111C72.8007 28.3982 70.7183 26.1989 68.1496 26.1989C65.5808 26.1989 63.4984 28.3982 63.4984 31.1111C63.4984 33.8241 65.5808 36.0234 68.1496 36.0234Z"/>
<path d="M80.6875 36.0234C83.2563 36.0234 85.3387 33.8241 85.3387 31.1111C85.3387 28.3982 83.2563 26.1989 80.6875 26.1989C78.1187 26.1989 76.0363 28.3982 76.0363 31.1111C76.0363 33.8241 78.1187 36.0234 80.6875 36.0234Z"/>
<path d="M81.092 49.1228C83.6607 49.1228 85.7431 46.9235 85.7431 44.2105C85.7431 41.4976 83.6607 39.2982 81.092 39.2982C78.5232 39.2982 76.4408 41.4976 76.4408 44.2105C76.4408 46.9235 78.5232 49.1228 81.092 49.1228Z"/>
<path d="M93.6296 49.1228C96.1983 49.1228 98.2807 46.9235 98.2807 44.2105C98.2807 41.4976 96.1983 39.2982 93.6296 39.2982C91.0608 39.2982 88.9784 41.4976 88.9784 44.2105C88.9784 46.9235 91.0608 49.1228 93.6296 49.1228Z"/>
<path d="M55.6117 22.9239C58.1805 22.9239 60.2629 20.7246 60.2629 18.0117C60.2629 15.2987 58.1805 13.0994 55.6117 13.0994C53.043 13.0994 50.9606 15.2987 50.9606 18.0117C50.9606 20.7246 53.043 22.9239 55.6117 22.9239Z"/>
<path d="M43.0738 9.82456C45.6425 9.82456 47.7249 7.62526 47.7249 4.91228C47.7249 2.1993 45.6425 0 43.0738 0C40.505 0 38.4226 2.1993 38.4226 4.91228C38.4226 7.62526 40.505 9.82456 43.0738 9.82456Z"/>
<path d="M30.3336 9.82456C33.0141 9.82456 35.187 7.62526 35.187 4.91228C35.187 2.1993 33.0141 0 30.3336 0C27.6532 0 25.4803 2.1993 25.4803 4.91228C25.4803 7.62526 27.6532 9.82456 30.3336 9.82456Z"/>
</svg>
